PalladioL Arch by Patrick:Ray.ufo
<glyph name="exclam" format="1">
  <advance width="278"/>
  <unicode hex="0021"/>
  <outline>
    <contour>
      <point x="203.736034411" y="121.925348297" type="line"/>
      <point x="128.749657761" y="36.5759885686" type="line"/>
      <point x="93.4134785221" y="86.0793769501" type="line"/>
      <point x="165.546685625" y="170.501685696" type="line"/>
    </contour>
    <contour>
      <point x="398.962758258" y="859.345641843" type="line"/>
      <point x="391.237333398" y="830.548943538" type="line"/>
      <point x="355.223323319" y="718.95837102" type="line"/>
      <point x="335.635225008" y="662.123625304" type="line"/>
      <point x="226.90314418" y="334.487932292" type="line"/>
      <point x="219.17771932" y="305.691233988" type="line"/>
      <point x="185.440745994" y="270.545795705" type="line"/>
      <point x="177.475265803" y="273.214965422" type="line"/>
      <point x="180.565435746" y="284.733644744" type="line"/>
      <point x="182.728554707" y="292.796720269" type="line"/>
      <point x="187.933832545" y="318.671648721" type="line"/>
      <point x="257.456546405" y="661.956926182" type="line"/>
      <point x="283.554952195" y="781.891808033" type="line"/>
      <point x="366.626836704" y="848.839064034" type="line"/>
    </contour>
  </outline>
</glyph>
<glyph name="quotedbl" format="1">
  <advance width="371"/>
  <unicode hex="0022"/>
  <outline>
    <contour>
      <point x="225.768774246" y="566.492504715" type="line"/>
      <point x="254.951240107" y="782.061058608" type="line"/>
      <point x="256.496325078" y="787.820398269" type="line"/>
      <point x="309.44341806" y="846.030978382" type="line"/>
      <point x="338.596202474" y="815.547727717" type="line"/>
      <point x="335.791043992" y="808.32750313" type="line"/>
      <point x="244.789904572" y="572.672844602" type="line"/>
    </contour>
    <contour>
      <point x="397.910003696" y="622.424580697" type="line"/>
      <point x="427.092469556" y="837.99313459" type="line"/>
      <point x="428.637554528" y="843.752474251" type="line"/>
      <point x="481.584647509" y="901.963054364" type="line"/>
      <point x="510.428414929" y="870.327935767" type="line"/>
      <point x="507.932273441" y="864.259579112" type="line"/>
      <point x="416.931134022" y="628.604920584" type="line"/>
    </contour>
  </outline>
</glyph>
<glyph name="numbersign" format="1">
  <advance width="500"/>
  <unicode hex="0023"/>
  <outline>
    <contour>
      <point x="516.216369398" y="403.256404165" type="line"/>
      <point x="412.551209122" y="369.573551778" type="line"/>
      <point x="316.938820321" y="113.494287465" type="line"/>
      <point x="261.777542375" y="95.5713017916" type="line"/>
      <point x="357.389931177" y="351.650566104" type="line"/>
      <point x="229.948357994" y="310.242288858" type="line"/>
      <point x="132.433856159" y="53.5449905566" type="line"/>
      <point x="77.2725782147" y="35.622004883" type="line"/>
      <point x="174.787080048" y="292.319303184" type="line"/>
      <point x="73.0240328048" y="259.254484786" type="line"/>
      <point x="90.3289844898" y="323.759088988" type="line"/>
      <point x="200.65154038" y="359.605060336" type="line"/>
      <point x="263.577089442" y="526.204059791" type="line"/>
      <point x="158.960872649" y="492.21219041" type="line"/>
      <point x="176.265824334" y="556.716794612" type="line"/>
      <point x="288.490493257" y="593.180799948" type="line"/>
      <point x="382.557797085" y="843.500724599" type="line"/>
      <point x="437.71907503" y="861.423710273" type="line"/>
      <point x="343.651771202" y="611.103785622" type="line"/>
      <point x="470.142287869" y="652.203045874" type="line"/>
      <point x="563.258535181" y="902.213953531" type="line"/>
      <point x="618.419813126" y="920.136939204" type="line"/>
      <point x="525.303565814" y="670.126031548" type="line"/>
      <point x="617.556047895" y="700.100680002" type="line"/>
      <point x="600.25109621" y="635.5960758" type="line"/>
      <point x="500.390161999" y="603.14929139" type="line"/>
      <point x="438.415669454" y="436.859308929" type="line"/>
      <point x="533.521321083" y="467.761008367" type="line"/>
    </contour>
    <contour>
      <point x="318.738367387" y="544.127045465" type="line"/>
      <point x="255.812818325" y="377.528046009" type="line"/>
      <point x="383.254391509" y="418.936323256" type="line"/>
      <point x="445.228884054" y="585.226305717" type="line"/>
    </contour>
  </outline>
</glyph>
<glyph name="dollar" format="1">
  <advance width="500"/>
  <unicode hex="0024"/>
  <outline>
    <contour>
      <point x="303.863650463" y="411.015565603" type="line"/>
      <point x="180.532265403" y="414.052720627" type="line"/>
      <point x="170.061478913" y="536.826022771" type="line"/>
      <point x="306.596358384" y="760.988934678" type="line"/>
      <point x="417.890921387" y="836.054832578" type="line"/>
      <point x="434.172799956" y="909.690180193" type="line"/>
      <point x="476.97034319" y="923.595944939" type="line"/>
      <point x="454.007063474" y="850.944065167" type="line"/>
      <point x="598.594714421" y="852.710565149" type="line"/>
      <point x="547.294838417" y="703.557984767" type="line"/>
      <point x="516.861029895" y="693.669440947" type="line"/>
      <point x="529.839743659" y="742.047894099" type="line"/>
      <point x="527.124497437" y="806.356315024" type="line"/>
      <point x="442.882451675" y="809.476819608" type="line"/>
      <point x="362.538033139" y="509.991157241" type="line"/>
      <point x="498.566175439" y="508.976504274" type="line"/>
      <point x="511.91413701" y="383.983666312" type="line"/>
      <point x="364.038595942" y="146.672790065" type="line"/>
      <point x="242.330422326" y="61.9145316224" type="line"/>
      <point x="215.232948954" y="-52.036193618" type="line"/>
      <point x="172.435405721" y="-65.9419583649" type="line"/>
      <point x="206.523297235" y="48.1771669665" type="line"/>
      <point x="35.9481033539" y="36.9153402036" type="line"/>
      <point x="93.0952967168" y="211.099998099" type="line"/>
      <point x="123.529105238" y="220.988541919" type="line"/>
      <point x="103.752017598" y="147.268994259" type="line"/>
      <point x="104.397112058" y="104.368646961" type="line"/>
      <point x="217.647909032" y="89.6444125248" type="line"/>
    </contour>
    <contour>
      <point x="252.837000135" y="101.078041317" type="line"/>
      <point x="426.274094414" y="320.407814062" type="line"/>
      <point x="337.507656594" y="416.689854734" type="line"/>
    </contour>
    <contour>
      <point x="406.766309591" y="794.58758702" type="line"/>
      <point x="330.255798564" y="742.389797188" type="line"/>
      <point x="252.515329432" y="601.469542907" type="line"/>
      <point x="329.203044001" y="505.468736042" type="line"/>
    </contour>
  </outline>
</glyph>
<glyph name="percent" format="1">
  <advance width="840"/>
  <unicode hex="0025"/>
  <outline>
    <contour>
      <point x="502.949155276" y="725.95037672" type="line"/>
      <point x="297.272161575" y="483.527678957" type="line"/>
      <point x="198.3980752" y="613.32672338" type="line"/>
      <point x="402.887011988" y="844.848775809" type="line"/>
    </contour>
    <contour>
      <point x="268.110212351" y="640.183418703" type="line"/>
      <point x="305.330608962" y="510.329658392" type="line"/>
      <point x="433.855052113" y="701.397417261" type="line"/>
      <point x="396.016621513" y="828.947441708" type="line"/>
    </contour>
    <contour>
      <point x="814.35316413" y="440.193574163" type="line"/>
      <point x="611.766340372" y="209.289555722" type="line"/>
      <point x="509.802084053" y="327.569920822" type="line"/>
      <point x="717.381190787" y="570.610652574" type="line"/>
    </contour>
    <contour>
      <point x="579.514221204" y="354.426616146" type="line"/>
      <point x="616.734617815" y="224.572855834" type="line"/>
      <point x="745.259060967" y="415.640614703" type="line"/>
      <point x="707.420630366" y="543.19063915" type="line"/>
    </contour>
    <contour>
      <point x="193.541528534" y="41.8562101749" type="line"/>
      <point x="766.901602399" y="994.668152677" type="line"/>
      <point x="804.943863051" y="1007.02883245" type="line"/>
      <point x="231.583789186" y="54.2168899499" type="line"/>
    </contour>
  </outline>
</glyph>
<glyph name="ampersand" format="1">
  <advance width="778"/>
  <unicode hex="0026"/>
  <outline>
    <contour>
      <point x="549.134099662" y="587.443290082" type="line"/>
      <point x="640.768547753" y="615.114202672" type="line"/>
      <point x="827.436630875" y="683.126575106" type="line"/>
      <point x="793.774729084" y="596.483880056" type="line"/>
      <point x="664.335020736" y="567.04391603" type="line"/>
      <point x="657.038640537" y="523.666151647" type="line"/>
      <point x="525.307054711" y="294.755151106" type="line"/>
      <point x="669.420704869" y="275.338394411" type="line"/>
      <point x="733.306475256" y="316.073921779" type="line"/>
      <point x="731.287389494" y="289.131325441" type="line"/>
      <point x="629.077401932" y="189.679167203" type="line"/>
      <point x="594.88737841" y="172.261381801" type="line"/>
      <point x="446.540457528" y="205.023136597" type="line"/>
      <point x="230.632732669" y="53.9078729555" type="line"/>
      <point x="94.0463532331" y="211.409015093" type="line"/>
      <point x="186.787676826" y="385.592822504" type="line"/>
      <point x="307.898767049" y="506.95825464" type="line"/>
      <point x="320.466331812" y="650.886179789" type="line"/>
      <point x="369.86714972" y="757.363229822" type="line"/>
      <point x="453.08001249" y="847.48846137" type="line"/>
      <point x="519.866963493" y="882.857866117" type="line"/>
      <point x="588.349142541" y="820.992096992" type="line"/>
      <point x="485.455214262" y="644.560970575" type="line"/>
      <point x="388.975571329" y="543.816327501" type="line"/>
      <point x="503.882750094" y="311.977603715" type="line"/>
      <point x="584.45238324" y="456.971495781" type="line"/>
      <point x="583.495216851" y="540.777471508" type="line"/>
      <point x="503.843469876" y="525.411672319" type="line"/>
    </contour>
    <contour>
      <point x="188.221898943" y="280.912607095" type="line"/>
      <point x="292.63734062" y="132.936275893" type="line"/>
      <point x="424.783130383" y="224.240308076" type="line"/>
      <point x="311.349019991" y="471.27813193" type="line"/>
    </contour>
    <contour>
      <point x="397.199002511" y="590.649695681" type="line"/>
      <point x="515.357846118" y="765.731920403" type="line"/>
      <point x="480.900706794" y="824.984086185" type="line"/>
      <point x="398.473916746" y="715.136482886" type="line"/>
      <point x="384.265244877" y="578.035565285" type="line"/>
    </contour>
  </outline>
</glyph>
<glyph name="quotesingle" format="1">
  <advance width="208"/>
  <unicode hex="0027"/>
  <outline>
    <contour>
      <point x="234.328282893" y="569.273657664" type="line"/>
      <point x="263.510748754" y="784.842211558" type="line"/>
      <point x="265.055833725" y="790.601551218" type="line"/>
      <point x="318.002926706" y="848.812131332" type="line"/>
      <point x="347.15571112" y="818.328880667" type="line"/>
      <point x="344.350552639" y="811.108656079" type="line"/>
      <point x="253.349413219" y="575.453997552" type="line"/>
    </contour>
  </outline>
</glyph>
<glyph name="parenleft" format="1">
  <advance width="333"/>
  <unicode hex="0028"/>
  <outline>
    <contour>
      <point x="201.759283805" y="-160.508813005" type="line"/>
      <point x="116.601972848" y="4.23948642234" type="line"/>
      <point x="139.261911482" y="324.937889623" type="line"/>
      <point x="242.482752414" y="583.48928989" type="line"/>
      <point x="492.544275511" y="923.398911177" type="line"/>
      <point x="502.579907467" y="899.321667834" type="line"/>
      <point x="316.308132624" y="612.733921124" type="line"/>
      <point x="221.052771883" y="351.513351139" type="line"/>
      <point x="178.534564199" y="92.7076497665" type="line"/>
      <point x="226.318714496" y="-130.448263536" type="line"/>
    </contour>
  </outline>
</glyph>
<glyph name="parenright" format="1">
  <advance width="333"/>
  <unicode hex="0029"/>
  <outline>
    <contour>
      <point x="-29.5154883873" y="-213.573835023" type="line"/>
      <point x="158.562377357" y="86.2182928847" type="line"/>
      <point x="260.046089051" y="364.183047908" type="line"/>
      <point x="299.18911533" y="607.171615225" type="line"/>
      <point x="246.745704584" y="816.196096347" type="line"/>
      <point x="272.850220247" y="852.015985477" type="line"/>
      <point x="370.875382113" y="625.206584131" type="line"/>
      <point x="341.527932458" y="389.606641493" type="line"/>
      <point x="150.177017315" y="-22.7039604009" type="line"/>
      <point x="-17.9347714596" y="-231.891738706" type="line"/>
    </contour>
  </outline>
</glyph>
<glyph name="asterisk" format="1">
  <advance width="389"/>
  <unicode hex="002A"/>
  <outline>
    <contour>
      <point x="213.800913852" y="677.213293593" type="line"/>
      <point x="214.037914247" y="687.804921931" type="line"/>
      <point x="271.953284671" y="761.298802157" type="line"/>
      <point x="281.463849834" y="764.388972101" type="line"/>
      <point x="341.530553433" y="680.862529213" type="line"/>
      <point x="410.447453053" y="853.614085369" type="line"/>
      <point x="417.152859733" y="849.484030725" type="line"/>
      <point x="473.337210794" y="858.276272986" type="line"/>
      <point x="471.555125428" y="841.925304987" type="line"/>
      <point x="367.305101505" y="676.619640852" type="line"/>
      <point x="506.918365136" y="747.217833443" type="line"/>
      <point x="511.388636256" y="744.46446368" type="line"/>
      <point x="492.229582606" y="673.048651885" type="line"/>
      <point x="481.197938004" y="661.052555478" type="line"/>
      <point x="356.132478641" y="641.445568898" type="line"/>
      <point x="383.104248436" y="521.93083679" type="line"/>
      <point x="380.014078493" y="510.412157468" type="line"/>
      <point x="307.307793531" y="459.450435614" type="line"/>
      <point x="299.033296346" y="460.967737399" type="line"/>
      <point x="325.794692254" y="618.97067787" type="line"/>
      <point x="197.789206021" y="484.850498434" type="line"/>
      <point x="188.278640858" y="481.76032849" type="line"/>
      <point x="169.800472984" y="529.380981234" type="line"/>
      <point x="177.336908515" y="541.292877595" type="line"/>
      <point x="318.612229847" y="643.974972196" type="line"/>
    </contour>
  </outline>
</glyph>
<glyph name="plus" format="1">
  <advance width="606"/>
  <unicode hex="002B"/>
  <outline>
    <contour>
      <point x="419.757243101" y="674.73605473" type="line"/>
      <point x="473.016408013" y="692.041006415" type="line"/>
      <point x="404.105618267" y="435.174457538" type="line"/>
      <point x="617.142277918" y="504.394264278" type="line"/>
      <point x="599.837326233" y="439.889660076" type="line"/>
      <point x="386.800666583" y="370.669853336" type="line"/>
      <point x="316.962825855" y="110.347700664" type="line"/>
      <point x="263.703660942" y="93.0427489786" type="line"/>
      <point x="333.54150167" y="353.364901651" type="line"/>
      <point x="120.50484202" y="284.145094911" type="line"/>
      <point x="137.809793705" y="348.649699113" type="line"/>
      <point x="350.846453355" y="417.869505853" type="line"/>
    </contour>
  </outline>
</glyph>
<glyph name="comma" format="1">
  <advance width="250"/>
  <unicode hex="002C"/>
  <outline>
    <contour>
      <point x="241.013172938" y="192.919309381" type="line"/>
      <point x="25.4987014219" y="-134.713832176" type="line"/>
      <point x="-19.3659386393" y="-169.269019657" type="line"/>
      <point x="-29.2815429292" y="-160.924710324" type="line"/>
      <point x="129.550571205" y="139.879519097" type="line"/>
      <point x="232.024619633" y="204.719222511" type="line"/>
    </contour>
  </outline>
</glyph>
<glyph name="hyphen" format="1">
  <advance width="333"/>
  <unicode hex="002D"/>
  <outline>
    <contour>
      <point x="87.361897149" y="254.449979295" type="line"/>
      <point x="84.1516995391" y="258.664233984" type="line"/>
      <point x="130.534364103" y="344.182844289" type="line"/>
      <point x="380.662227889" y="425.454313809" type="line"/>
      <point x="383.872425498" y="421.24005912" type="line"/>
      <point x="334.636591386" y="334.794397833" type="line"/>
    </contour>
  </outline>
</glyph>
<glyph name="period" format="1">
  <advance width="250"/>
  <unicode hex="002E"/>
  <outline>
    <contour>
      <point x="190.421243183" y="117.599110376" type="line"/>
      <point x="115.434866533" y="32.2497506473" type="line"/>
      <point x="80.0986872939" y="81.7531390288" type="line"/>
      <point x="152.231894396" y="166.175447775" type="line"/>
    </contour>
  </outline>
</glyph>
<glyph name="slash" format="1">
  <advance width="606"/>
  <unicode hex="002F"/>
  <outline>
    <contour>
      <point x="103.032285565" y="-91.6467857565" type="line"/>
      <point x="45.9688945871" y="-110.187805419" type="line"/>
      <point x="660.881278896" y="978.094919182" type="line"/>
      <point x="717.944669873" y="996.635938844" type="line"/>
    </contour>
  </outline>
</glyph>
<glyph name="zero" format="1">
  <advance width="500"/>
  <unicode hex="0030"/>
  <outline>
    <contour>
      <point x="555.341500018" y="565.276565563" type="line"/>
      <point x="220.17111099" y="50.5086860174" type="line"/>
      <point x="98.4537725639" y="91.922916656" type="line"/>
      <point x="127.702145149" y="382.166702863" type="line"/>
      <point x="459.950402966" y="863.389795472" type="line"/>
    </contour>
    <contour>
      <point x="218.715504317" y="449.59137595" type="line"/>
      <point x="243.350440505" y="94.8412845705" type="line"/>
      <point x="460.001902932" y="481.725741426" type="line"/>
      <point x="435.105960813" y="829.030791268" type="line"/>
    </contour>
  </outline>
</glyph>
<glyph name="one" format="1">
  <advance width="500"/>
  <unicode hex="0031"/>
  <outline>
    <contour>
      <point x="241.855553613" y="707.358043107" type="line"/>
      <point x="487.411014274" y="888.08422232" type="line"/>
      <point x="496.090550585" y="875.132441258" type="line"/>
      <point x="315.933642864" y="203.593436796" type="line"/>
      <point x="357.357194795" y="147.656257907" type="line"/>
      <point x="405.885082659" y="160.269537817" type="line"/>
      <point x="396.614572828" y="125.713499852" type="line"/>
      <point x="313.539633383" y="100.823740212" type="line"/>
      <point x="251.315920696" y="92.1721148535" type="line"/>
      <point x="90.3743745812" y="26.2100276635" type="line"/>
      <point x="99.6448844119" y="60.7660656287" type="line"/>
      <point x="153.831100308" y="81.5266211104" type="line"/>
      <point x="236.044895495" y="177.636009269" type="line"/>
      <point x="385.918137767" y="736.291956377" type="line"/>
      <point x="388.507246452" y="771.831462184" type="line"/>
      <point x="385.345059909" y="769.752543269" type="line"/>
      <point x="244.735783632" y="663.081010927" type="line"/>
      <point x="235.225218469" y="659.990840984" type="line"/>
    </contour>
  </outline>
</glyph>
<glyph name="two" format="1">
  <advance width="500"/>
  <unicode hex="0032"/>
  <outline>
    <contour>
      <point x="239.935978884" y="292.458219119" type="line"/>
      <point x="470.475310396" y="650.208327004" type="line"/>
      <point x="379.329703817" y="766.74657337" type="line"/>
      <point x="240.505567844" y="634.368512668" type="line"/>
      <point x="213.92705139" y="577.365366861" type="line"/>
      <point x="186.346412418" y="568.403874024" type="line"/>
      <point x="244.54068443" y="730.311201705" type="line"/>
      <point x="424.761311863" y="851.95616668" type="line"/>
      <point x="565.340906694" y="712.575894463" type="line"/>
      <point x="372.555769435" y="404.945507979" type="line"/>
      <point x="139.823203555" y="126.393904092" type="line"/>
      <point x="471.978928136" y="244.832463467" type="line"/>
      <point x="456.171050358" y="192.38037253" type="line"/>
      <point x="444.167398642" y="141.164349571" type="line"/>
      <point x="230.392677338" y="85.3737409772" type="line"/>
      <point x="14.2898532776" y="1.48866811345" type="line"/>
      <point x="22.3242951314" y="31.4372343502" type="line"/>
    </contour>
  </outline>
</glyph>
<glyph name="three" format="1">
  <advance width="500"/>
  <unicode hex="0033"/>
  <outline>
    <contour>
      <point x="260.684639675" y="738.711077412" type="line"/>
      <point x="431.418707477" y="854.11928564" type="line"/>
      <point x="564.719817768" y="752.329654959" type="line"/>
      <point x="408.497762915" y="525.975840903" type="line"/>
      <point x="490.885706709" y="515.944128726" type="line"/>
      <point x="508.607917268" y="400.78426821" type="line"/>
      <point x="419.313791679" y="232.977834449" type="line"/>
      <point x="168.81405911" y="33.8217683212" type="line"/>
      <point x="49.406927781" y="22.3620573118" type="line"/>
      <point x="61.5454478835" y="180.871048539" type="line"/>
      <point x="90.3141437676" y="200.733186709" type="line"/>
      <point x="112.980626237" y="104.003213108" type="line"/>
      <point x="210.966507886" y="90.6278803665" type="line"/>
      <point x="409.653083444" y="332.882178039" type="line"/>
      <point x="329.563127" y="458.26993401" type="line"/>
      <point x="242.876005755" y="406.971411975" type="line"/>
      <point x="238.072712106" y="411.719500607" type="line"/>
      <point x="265.863291003" y="476.476704945" type="line"/>
      <point x="279.820121754" y="479.960091928" type="line"/>
      <point x="309.635896287" y="487.544899884" type="line"/>
      <point x="475.917588629" y="686.674883794" type="line"/>
      <point x="399.538891054" y="783.827558591" type="line"/>
      <point x="258.692614383" y="666.564397911" type="line"/>
      <point x="224.268645405" y="596.49748781" type="line"/>
      <point x="194.785893399" y="586.917960984" type="line"/>
    </contour>
  </outline>
</glyph>
<glyph name="four" format="1">
  <advance width="500"/>
  <unicode hex="0034"/>
  <outline>
    <contour>
      <point x="68.2958106934" y="212.505316652" type="line"/>
      <point x="64.9415798851" y="235.599092154" type="line"/>
      <point x="477.165442392" y="856.365754162" type="line"/>
      <point x="555.887083447" y="910.333445915" type="line"/>
      <point x="562.664506726" y="896.763630864" type="line"/>
      <point x="464.847097771" y="554.79947191" type="line"/>
      <point x="421.893735553" y="394.689829337" type="line"/>
      <point x="444.719091944" y="402.106237202" type="line"/>
      <point x="447.572261493" y="403.033288185" type="line"/>
      <point x="525.534890297" y="431.519268526" type="line"/>
      <point x="503.594683695" y="349.736645341" type="line"/>
      <point x="402.116647913" y="320.970281677" type="line"/>
      <point x="378.940373336" y="234.580186764" type="line"/>
      <point x="412.51847274" y="165.57924358" type="line"/>
      <point x="457.242134539" y="176.956455514" type="line"/>
      <point x="447.971624708" y="142.400417548" type="line"/>
      <point x="302.672972576" y="108.85903255" type="line"/>
      <point x="149.339878591" y="45.3690813145" type="line"/>
      <point x="158.610388422" y="79.92511928" type="line"/>
      <point x="218.502943416" y="102.539776728" type="line"/>
      <point x="299.051625967" y="208.622759236" type="line"/>
      <point x="322.227900544" y="295.01285415" type="line"/>
    </contour>
    <contour>
      <point x="450.778970204" y="774.189913937" type="line"/>
      <point x="137.527837181" y="302.293748019" type="line"/>
      <point x="342.004988184" y="368.732401809" type="line"/>
    </contour>
  </outline>
</glyph>
<glyph name="five" format="1">
  <advance width="500"/>
  <unicode hex="0035"/>
  <outline>
    <contour>
      <point x="234.595398695" y="492.60370648" type="line"/>
      <point x="388.900499793" y="595.313584268" type="line"/>
      <point x="514.716240556" y="433.26138726" type="line"/>
      <point x="365.700653643" y="178.756692075" type="line"/>
      <point x="158.352437431" y="30.422581383" type="line"/>
      <point x="60.2015719877" y="23.76652538" type="line"/>
      <point x="54.6990629414" y="161.823127636" type="line"/>
      <point x="81.8506572532" y="185.365686551" type="line"/>
      <point x="100.259863464" y="105.127297854" type="line"/>
      <point x="198.887784635" y="90.909114174" type="line"/>
      <point x="417.807552964" y="347.097810265" type="line"/>
      <point x="323.829727432" y="501.619915206" type="line"/>
      <point x="187.999739271" y="393.346881035" type="line"/>
      <point x="170.832710911" y="394.077748741" type="line"/>
      <point x="246.067873742" y="655.102135447" type="line"/>
      <point x="286.501088939" y="812.290008167" type="line"/>
      <point x="289.711286549" y="808.075753479" type="line"/>
      <point x="456.740205356" y="867.604050161" type="line"/>
      <point x="620.67895422" y="915.613667521" type="line"/>
      <point x="626.979321773" y="922.918092154" type="line"/>
      <point x="612.716528966" y="876.225340878" type="line"/>
      <point x="602.566979218" y="831.920525512" type="line"/>
      <point x="596.266611665" y="824.616100879" type="line"/>
      <point x="307.739459167" y="736.125257255" type="line"/>
    </contour>
  </outline>
</glyph>
<glyph name="six" format="1">
  <advance width="500"/>
  <unicode hex="0036"/>
  <outline>
    <contour>
      <point x="600.826795044" y="893.391376629" type="line"/>
      <point x="226.873028773" y="421.749511815" type="line"/>
      <point x="254.309634546" y="449.590525465" type="line"/>
      <point x="405.047509973" y="561.655963614" type="line"/>
      <point x="512.769171394" y="396.879030515" type="line"/>
      <point x="223.024280539" y="51.4357370005" type="line"/>
      <point x="106.761006133" y="294.399923069" type="line"/>
      <point x="364.898872277" y="742.079929709" type="line"/>
      <point x="570.272958856" y="899.235766819" type="line"/>
      <point x="603.298931" y="902.606320086" type="line"/>
    </contour>
    <contour>
      <point x="221.169744612" y="377.837913489" type="line"/>
      <point x="184.963690266" y="291.420035388" type="line"/>
      <point x="245.585576066" y="93.4645996896" type="line"/>
      <point x="420.16271619" y="329.988191373" type="line"/>
      <point x="350.366342692" y="480.801241897" type="line"/>
    </contour>
  </outline>
</glyph>
<glyph name="seven" format="1">
  <advance width="500"/>
  <unicode hex="0037"/>
  <outline>
    <contour>
      <point x="409.541786628" y="555.75600705" type="line"/>
      <point x="575.319362772" y="820.964313804" type="line"/>
      <point x="321.387272921" y="738.456776306" type="line"/>
      <point x="241.741635821" y="638.975984397" type="line"/>
      <point x="217.779288523" y="572.308261234" type="line"/>
      <point x="189.247593034" y="563.037751403" type="line"/>
      <point x="223.620496009" y="681.455331469" type="line"/>
      <point x="253.214110869" y="801.474413364" type="line"/>
      <point x="261.17959106" y="798.805243647" type="line"/>
      <point x="471.0060531" y="872.239305076" type="line"/>
      <point x="682.497627779" y="935.699772155" type="line"/>
      <point x="676.317287891" y="912.662413512" type="line"/>
      <point x="400.607354261" y="477.147753854" type="line"/>
      <point x="148.388822075" y="45.0600643201" type="line"/>
      <point x="108.657443252" y="45.8195656972" type="line"/>
      <point x="60.8916225761" y="16.6305008378" type="line"/>
      <point x="56.3493348562" y="28.8236310068" type="line"/>
    </contour>
  </outline>
</glyph>
<glyph name="eight" format="1">
  <advance width="500"/>
  <unicode hex="0038"/>
  <outline>
    <contour>
      <point x="207.386628506" y="601.52681025" type="line"/>
      <point x="456.146176901" y="862.153727494" type="line"/>
      <point x="583.074903039" y="762.499432586" type="line"/>
      <point x="415.416164458" y="535.584001401" type="line"/>
      <point x="504.947724402" y="380.668679419" type="line"/>
      <point x="208.758432795" y="46.8004820849" type="line"/>
      <point x="77.6653975944" y="192.417511048" type="line"/>
      <point x="174.543969779" y="365.842667566" type="line"/>
      <point x="266.388357796" y="449.309291657" type="line"/>
    </contour>
    <contour>
      <point x="296.300154462" y="444.307752404" type="line"/>
      <point x="147.662546207" y="223.572661106" type="line"/>
      <point x="233.530858348" y="90.5992466947" type="line"/>
      <point x="416.835545851" y="307.877883712" type="line"/>
      <point x="361.260063969" y="427.561866396" type="line"/>
    </contour>
    <contour>
      <point x="386.764441302" y="542.04642558" type="line"/>
      <point x="515.003872992" y="728.815729715" type="line"/>
      <point x="437.317090841" y="830.80069319" type="line"/>
      <point x="289.840479026" y="666.170330387" type="line"/>
      <point x="342.799791755" y="556.150925059" type="line"/>
    </contour>
  </outline>
</glyph>
<glyph name="nine" format="1">
  <advance width="500"/>
  <unicode hex="0039"/>
  <outline>
    <contour>
      <point x="58.0384530272" y="15.7034498547" type="line"/>
      <point x="60.5105889822" y="24.9183933122" type="line"/>
      <point x="447.446123953" y="502.881214917" type="line"/>
      <point x="362.94918214" y="414.441685244" type="line"/>
      <point x="268.368597303" y="356.372572519" type="line"/>
      <point x="159.623862767" y="530.28024903" type="line"/>
      <point x="441.880329156" y="857.518472579" type="line"/>
      <point x="563.492914601" y="621.549694149" type="line"/>
      <point x="320.142908057" y="193.395025497" type="line"/>
      <point x="85.1210856768" y="6.62827281634" type="line"/>
    </contour>
    <contour>
      <point x="252.848351961" y="599.474824037" type="line"/>
      <point x="326.211951128" y="439.306213152" type="line"/>
      <point x="497.43791538" y="656.866083976" type="line"/>
      <point x="507.842361182" y="792.7309336" type="line"/>
      <point x="430.968712221" y="829.789442161" type="line"/>
    </contour>
  </outline>
</glyph>
<glyph name="colon" format="1">
  <advance width="250"/>
  <unicode hex="003A"/>
  <outline>
    <contour>
      <point x="189.470186667" y="117.290093382" type="line"/>
      <point x="114.483810016" y="31.9407336529" type="line"/>
      <point x="79.1476307776" y="81.4441220345" type="line"/>
      <point x="151.28083788" y="165.86643078" type="line"/>
    </contour>
    <contour>
      <point x="295.772032732" y="513.532662052" type="line"/>
      <point x="221.094673075" y="429.335170255" type="line"/>
      <point x="185.758493837" y="478.838558637" type="line"/>
      <point x="254.801530996" y="551.742188061" type="line"/>
    </contour>
  </outline>
</glyph>
<glyph name="semicolon" format="1">
  <advance width="250"/>
  <unicode hex="003B"/>
  <outline>
    <contour>
      <point x="241.631206928" y="195.223045246" type="line"/>
      <point x="26.1167354107" y="-132.410096312" type="line"/>
      <point x="-18.7479046504" y="-166.965283792" type="line"/>
      <point x="-28.6635089406" y="-158.62097446" type="line"/>
      <point x="130.168605193" y="142.183254961" type="line"/>
      <point x="232.642653621" y="207.022958375" type="line"/>
    </contour>
    <contour>
      <point x="321.450558672" y="521.8761209" type="line"/>
      <point x="246.773199015" y="437.678629103" type="line"/>
      <point x="211.437019777" y="487.182017485" type="line"/>
      <point x="280.480056936" y="560.085646909" type="line"/>
    </contour>
  </outline>
</glyph>
<glyph name="less" format="1">
  <advance width="606"/>
  <unicode hex="003C"/>
  <outline>
    <contour>
      <point x="125.902164124" y="284.847328945" type="line"/>
      <point x="143.825149798" y="351.655669012" type="line"/>
      <point x="692.614441145" y="776.010279324" type="line"/>
      <point x="672.837353505" y="702.290731665" type="line"/>
      <point x="202.721692145" y="338.196986709" type="line"/>
      <point x="549.848589743" y="243.847294656" type="line"/>
      <point x="530.071502105" y="170.127746997" type="line"/>
    </contour>
  </outline>
</glyph>
<glyph name="equal" format="1">
  <advance width="606"/>
  <unicode hex="003D"/>
  <outline>
    <contour>
      <point x="629.811974688" y="551.620849498" type="line"/>
      <point x="150.479490475" y="395.876284333" type="line"/>
      <point x="167.78444216" y="460.380888535" type="line"/>
      <point x="647.116926373" y="616.1254537" type="line"/>
    </contour>
    <contour>
      <point x="569.862677779" y="328.158470655" type="line"/>
      <point x="90.5301935657" y="172.41390549" type="line"/>
      <point x="107.835145252" y="236.918509692" type="line"/>
      <point x="587.167629464" y="392.663074857" type="line"/>
    </contour>
  </outline>
</glyph>
<glyph name="greater" format="1">
  <advance width="606"/>
  <unicode hex="003E"/>
  <outline>
    <contour>
      <point x="64.8097664333" y="86.2486275252" type="line"/>
      <point x="533.689359815" y="445.734900752" type="line"/>
      <point x="187.798530194" y="544.692064533" type="line"/>
      <point x="207.575617835" y="618.411612193" type="line"/>
      <point x="611.744955816" y="503.692030245" type="line"/>
      <point x="593.821970141" y="436.883690178" type="line"/>
      <point x="45.0326787934" y="12.5290798656" type="line"/>
    </contour>
  </outline>
</glyph>
<glyph name="question" format="1">
  <advance width="444"/>
  <unicode hex="003F"/>
  <outline>
    <contour>
      <point x="280.677777112" y="784.111343852" type="line"/>
      <point x="417.032832068" y="865.216964736" type="line"/>
      <point x="542.536500899" y="744.070396156" type="line"/>
      <point x="384.151327085" y="509.653506575" type="line"/>
      <point x="256.742924246" y="338.926153446" type="line"/>
      <point x="262.833351873" y="290.434866577" type="line"/>
      <point x="238.53492711" y="267.819358645" type="line"/>
      <point x="219.246680983" y="338.308969941" type="line"/>
      <point x="332.032208018" y="509.542373828" type="line"/>
      <point x="447.598888002" y="691.142589103" type="line"/>
      <point x="364.301788884" y="778.687103403" type="line"/>
      <point x="268.581158202" y="703.42417174" type="line"/>
      <point x="234.727212146" y="641.954171108" type="line"/>
      <point x="209.618709129" y="642.207621729" type="line"/>
    </contour>
    <contour>
      <point x="260.799425389" y="140.46636796" type="line"/>
      <point x="185.813048739" y="55.1170082311" type="line"/>
      <point x="150.476869499" y="104.620396612" type="line"/>
      <point x="222.610076602" y="189.042705358" type="line"/>
    </contour>
  </outline>
</glyph>
<glyph name="at" format="1">
  <advance width="747"/>
  <unicode hex="0040"/>
  <outline>
    <contour>
      <point x="736.651541255" y="419.152635359" type="line"/>
      <point x="630.925394024" y="280.705367517" type="line"/>
      <point x="368.535927532" y="98.7153371399" type="line"/>
      <point x="125.109981529" y="388.684693417" type="line"/>
      <point x="588.223005001" y="920.840023723" type="line"/>
      <point x="814.952868497" y="694.842288189" type="line"/>
      <point x="508.377026747" y="306.07764715" type="line"/>
      <point x="462.054159037" y="379.349261881" type="line"/>
      <point x="320.661864976" y="250.34260493" type="line"/>
      <point x="237.742744516" y="371.656723116" type="line"/>
      <point x="514.886900265" y="702.491167366" type="line"/>
      <point x="573.858514148" y="637.535228296" type="line"/>
      <point x="612.608721047" y="723.728289447" type="line"/>
      <point x="696.301694481" y="750.921784952" type="line"/>
      <point x="536.854601296" y="405.756323307" type="line"/>
      <point x="524.397899389" y="372.267953228" type="line"/>
      <point x="539.212819459" y="346.589208054" type="line"/>
      <point x="763.310805155" y="673.856915759" type="line"/>
      <point x="576.576381347" y="864.482695092" type="line"/>
      <point x="179.272191891" y="412.5918357" type="line"/>
      <point x="390.644172866" y="158.47185271" type="line"/>
      <point x="514.398492713" y="224.968624328" type="line"/>
      <point x="678.637093761" y="400.302598702" type="line"/>
    </contour>
    <contour>
      <point x="421.095443085" y="582.642186529" type="line"/>
      <point x="314.352332612" y="369.210669379" type="line"/>
      <point x="344.222228086" y="286.38731101" type="line"/>
      <point x="448.928357138" y="391.907825903" type="line"/>
      <point x="549.917117444" y="609.778414691" type="line"/>
      <point x="522.711402192" y="676.644022101" type="line"/>
    </contour>
  </outline>
</glyph>
<glyph name="B" format="1">
  <advance width="611"/>
  <unicode hex="0042"/>
  <outline>
    <contour>
      <point x="559.073275522" y="909.265778028" type="line"/>
      <point x="687.286080704" y="807.925781244" type="line"/>
      <point x="578.304779736" y="637.928445336" type="line"/>
      <point x="471.456482319" y="563.255764475" type="line"/>
      <point x="599.876172489" y="559.768975553" type="line"/>
      <point x="618.264428103" y="440.619677297" type="line"/>
      <point x="473.242056584" y="204.235852033" type="line"/>
      <point x="282.487790872" y="88.631460527" type="line"/>
      <point x="197.510738395" y="63.123666898" type="line"/>
      <point x="168.574003778" y="65.2876363429" type="line"/>
      <point x="60.8916225761" y="16.6305008378" type="line"/>
      <point x="67.9990134468" y="43.123463278" type="line"/>
      <point x="95.8166528141" y="62.6765844536" type="line"/>
      <point x="136.826000807" y="144.346373922" type="line"/>
      <point x="283.300056142" y="690.331773776" type="line"/>
      <point x="262.607703302" y="778.240020958" type="line"/>
      <point x="229.2967197" y="770.571012958" type="line"/>
      <point x="238.567229531" y="805.127050923" type="line"/>
      <point x="384.816938179" y="838.977452916" type="line"/>
      <point x="535.296862615" y="901.540353168" type="line"/>
    </contour>
    <contour>
      <point x="212.343554125" y="118.413327643" type="line"/>
      <point x="283.102769925" y="132.992692752" type="line"/>
      <point x="514.125267037" y="385.753568233" type="line"/>
      <point x="374.022727934" y="504.259600767" type="line"/>
      <point x="309.683907353" y="481.251726279" type="line"/>
    </contour>
    <contour>
      <point x="321.735570133" y="526.174575634" type="line"/>
      <point x="379.131983639" y="542.720876427" type="line"/>
      <point x="586.02409472" y="750.840136361" type="line"/>
      <point x="476.334413542" y="840.323803157" type="line"/>
      <point x="396.826699767" y="806.078483155" type="line"/>
    </contour>
  </outline>
</glyph>
<glyph name="D" format="1">
  <advance width="774"/>
  <unicode hex="0044"/>
  <outline>
    <contour>
      <point x="94.8175852317" y="68.6607410636" type="line"/>
      <point x="136.826000807" y="144.346373922" type="line"/>
      <point x="283.300056142" y="690.331773776" type="line"/>
      <point x="262.607703302" y="778.240020958" type="line"/>
      <point x="225.492493634" y="769.33494498" type="line"/>
      <point x="234.763003466" y="803.890982946" type="line"/>
      <point x="426.663424896" y="852.574200669" type="line"/>
      <point x="559.715315045" y="908.42292709" type="line"/>
      <point x="596.164479658" y="921.317440808" type="line"/>
      <point x="833.214986573" y="675.540916666" type="line"/>
      <point x="634.51357029" y="310.260716714" type="line"/>
      <point x="323.383221073" y="101.919191285" type="line"/>
      <point x="235.552999047" y="75.4843466729" type="line"/>
      <point x="189.497247137" y="72.0860102191" type="line"/>
      <point x="53.2831704457" y="14.1583648828" type="line"/>
      <point x="60.3905613164" y="40.651327323" type="line"/>
    </contour>
    <contour>
      <point x="212.961588113" y="120.717063507" type="line"/>
      <point x="308.448273338" y="143.33087047" type="line"/>
      <point x="550.439563263" y="291.355113683" type="line"/>
      <point x="723.417497475" y="612.527532031" type="line"/>
      <point x="723.87622358" y="843.99827051" type="line"/>
      <point x="680.433585887" y="872.992853061" type="line"/>
      <point x="504.866109031" y="849.594312988" type="line"/>
      <point x="396.826699767" y="806.078483155" type="line"/>
    </contour>
  </outline>
</glyph>
<glyph name="F" format="1">
  <advance width="556"/>
  <unicode hex="0046"/>
  <outline>
    <contour>
      <point x="242.510246845" y="204.971822647" type="line"/>
      <point x="263.202599682" y="117.063575464" type="line"/>
      <point x="307.926261481" y="128.440787397" type="line"/>
      <point x="298.655751649" y="93.8847494314" type="line"/>
      <point x="162.867664681" y="63.4335343766" type="line"/>
      <point x="19.9961923754" y="3.3427700797" type="line"/>
      <point x="29.2667022066" y="37.8988080452" type="line"/>
      <point x="75.8444659719" y="56.1872275717" type="line"/>
      <point x="152.159877797" y="175.615208181" type="line"/>
      <point x="290.908508272" y="692.803909731" type="line"/>
      <point x="270.216155433" y="780.712156913" type="line"/>
      <point x="225.492493634" y="769.33494498" type="line"/>
      <point x="234.763003466" y="803.890982946" type="line"/>
      <point x="398.131729407" y="843.303690837" type="line"/>
      <point x="505.505093616" y="890.80895841" type="line"/>
      <point x="607.577157853" y="925.025644741" type="line"/>
      <point x="719.588831915" y="947.751434936" type="line"/>
      <point x="660.491514453" y="779.241916656" type="line"/>
      <point x="627.204536382" y="768.426321853" type="line"/>
      <point x="647.290641016" y="843.297737445" type="line"/>
      <point x="632.118692885" y="874.117788291" type="line"/>
      <point x="508.052301106" y="848.526645101" type="line"/>
      <point x="403.817117909" y="806.246883246" type="line"/>
      <point x="321.30958041" y="498.698145353" type="line"/>
      <point x="424.99874622" y="529.234410938" type="line"/>
      <point x="534.916262982" y="576.514861562" type="line"/>
      <point x="550.559156966" y="608.935563753" type="line"/>
      <point x="571.383323255" y="670.377781198" type="line"/>
      <point x="599.915018744" y="679.64829103" type="line"/>
      <point x="561.215877848" y="545.104559914" type="line"/>
      <point x="529.768161023" y="418.174270425" type="line"/>
      <point x="501.236465534" y="408.903760594" type="line"/>
      <point x="514.713185619" y="475.31888362" type="line"/>
      <point x="514.830158348" y="501.64344597" type="line"/>
      <point x="405.362636842" y="478.692838826" type="line"/>
      <point x="306.47676468" y="443.408484608" type="line"/>
    </contour>
  </outline>
</glyph>
<glyph name="G" format="1">
  <advance width="763"/>
  <unicode hex="0047"/>
  <outline>
    <contour>
      <point x="785.457896742" y="853.492746805" type="line"/>
      <point x="731.241565442" y="919.993770847" type="line"/>
      <point x="609.362298157" y="899.31911638" type="line"/>
      <point x="234.550442565" y="456.839383724" type="line"/>
      <point x="437.626975758" y="165.32579296" type="line"/>
      <point x="578.119279305" y="245.672762951" type="line"/>
      <point x="597.113349161" y="297.057186001" type="line"/>
      <point x="628.324065592" y="413.395847151" type="line"/>
      <point x="606.803738843" y="443.204646969" type="line"/>
      <point x="530.029166949" y="425.619311961" type="line"/>
      <point x="539.299676781" y="460.175349927" type="line"/>
      <point x="654.710537781" y="495.571687376" type="line"/>
      <point x="772.308523273" y="535.884513549" type="line"/>
      <point x="768.387324479" y="508.323883221" type="line"/>
      <point x="737.716515563" y="487.843711063" type="line"/>
      <point x="715.821265091" y="441.825410634" type="line"/>
      <point x="663.906410036" y="248.311598027" type="line"/>
      <point x="385.654944825" y="104.277643039" type="line"/>
      <point x="140.678237939" y="139.289268295" type="line"/>
      <point x="126.29803844" y="399.58533875" type="line"/>
      <point x="647.068481344" y="955.732011385" type="line"/>
      <point x="864.554461521" y="983.287538806" type="line"/>
      <point x="798.562748046" y="802.023273225" type="line"/>
      <point x="769.079996042" y="792.4437464" type="line"/>
    </contour>
  </outline>
</glyph>
<glyph name="H" format="1">
  <advance width="832"/>
  <unicode hex="0048"/>
  <outline>
    <contour>
      <point x="691.843643109" y="585.445169273" type="line"/>
      <point x="613.523986244" y="562.100494604" type="line"/>
      <point x="390.976761431" y="489.79051792" type="line"/>
      <point x="311.421036591" y="461.838371523" type="line"/>
      <point x="242.510246845" y="204.971822647" type="line"/>
      <point x="263.202599682" y="117.063575464" type="line"/>
      <point x="307.926261481" y="128.440787397" type="line"/>
      <point x="298.655751649" y="93.8847494314" type="line"/>
      <point x="162.867664681" y="63.4335343766" type="line"/>
      <point x="19.9961923754" y="3.3427700797" type="line"/>
      <point x="29.2667022066" y="37.8988080452" type="line"/>
      <point x="75.8444659719" y="56.1872275717" type="line"/>
      <point x="152.159877797" y="175.615208181" type="line"/>
      <point x="290.908508272" y="692.803909731" type="line"/>
      <point x="270.216155433" y="780.712156913" type="line"/>
      <point x="225.492493634" y="769.33494498" type="line"/>
      <point x="234.763003466" y="803.890982946" type="line"/>
      <point x="369.600033918" y="834.033181006" type="line"/>
      <point x="513.42256274" y="894.432962298" type="line"/>
      <point x="504.152052909" y="859.876924332" type="line"/>
      <point x="457.574289143" y="841.588504805" type="line"/>
      <point x="381.25887732" y="722.160524196" type="line"/>
      <point x="326.25385232" y="517.128032268" type="line"/>
      <point x="404.573509185" y="540.472706937" type="line"/>
      <point x="627.120733998" y="612.782683621" type="line"/>
      <point x="706.676458838" y="640.734830018" type="line"/>
      <point x="761.681483838" y="845.767321946" type="line"/>
      <point x="740.989130999" y="933.675569129" type="line"/>
      <point x="696.2654692" y="922.298357196" type="line"/>
      <point x="705.535979032" y="956.854395161" type="line"/>
      <point x="840.37300948" y="986.99659322" type="line"/>
      <point x="984.195538301" y="1047.39637451" type="line"/>
      <point x="974.925028483" y="1012.84033655" type="line"/>
      <point x="928.347264705" y="994.55191702" type="line"/>
      <point x="852.031852882" y="875.123936411" type="line"/>
      <point x="713.283222411" y="357.935234862" type="line"/>
      <point x="733.975575248" y="270.026987679" type="line"/>
      <point x="778.699237047" y="281.404199612" type="line"/>
      <point x="769.428727215" y="246.848161647" type="line"/>
      <point x="633.640640247" y="216.396946592" type="line"/>
      <point x="490.769167941" y="156.306182295" type="line"/>
      <point x="500.039677772" y="190.862220261" type="line"/>
      <point x="546.617441538" y="209.150639787" type="line"/>
      <point x="622.932853363" y="328.578620397" type="line"/>
    </contour>
  </outline>
</glyph>
<glyph name="J" format="1">
  <advance width="333"/>
  <unicode hex="004A"/>
  <outline>
    <contour>
      <point x="-50.1118190919" y="-138.251935049" type="line"/>
      <point x="-37.7960954464" y="-127.941540517" type="line"/>
      <point x="19.7443512578" y="-130.274760538" type="line"/>
      <point x="106.020323502" y="16.5732334948" type="line"/>
      <point x="287.104282207" y="691.567841753" type="line"/>
      <point x="266.411929368" y="779.476088936" type="line"/>
      <point x="221.688267569" y="768.098877003" type="line"/>
      <point x="230.9587774" y="802.654914968" type="line"/>
      <point x="365.795807853" y="832.797113029" type="line"/>
      <point x="509.618336675" y="893.19689432" type="line"/>
      <point x="500.347826844" y="858.640856355" type="line"/>
      <point x="453.770063078" y="840.352436828" type="line"/>
      <point x="377.454651255" y="720.924456219" type="line"/>
      <point x="237.778969796" y="200.280150873" type="line"/>
      <point x="107.430540085" y="-84.9603951126" type="line"/>
      <point x="-46.9435226751" y="-220.288008854" type="line"/>
      <point x="-53.2919012943" y="-221.299259882" type="line"/>
      <point x="-68.8418280825" y="-224.248812922" type="line"/>
    </contour>
  </outline>
</glyph>
<glyph name="K" format="1">
  <advance width="726"/>
  <unicode hex="004B"/>
  <outline>
    <contour>
      <point x="242.510246845" y="204.971822647" type="line"/>
      <point x="263.202599682" y="117.063575464" type="line"/>
      <point x="307.926261481" y="128.440787397" type="line"/>
      <point x="298.655751649" y="93.8847494314" type="line"/>
      <point x="162.867664681" y="63.4335343766" type="line"/>
      <point x="19.9961923754" y="3.3427700797" type="line"/>
      <point x="29.2667022066" y="37.8988080452" type="line"/>
      <point x="75.8444659719" y="56.1872275717" type="line"/>
      <point x="152.159877797" y="175.615208181" type="line"/>
      <point x="290.908508272" y="692.803909731" type="line"/>
      <point x="270.216155433" y="780.712156913" type="line"/>
      <point x="225.492493634" y="769.33494498" type="line"/>
      <point x="234.763003466" y="803.890982946" type="line"/>
      <point x="369.600033918" y="834.033181006" type="line"/>
      <point x="513.42256274" y="894.432962298" type="line"/>
      <point x="504.152052909" y="859.876924332" type="line"/>
      <point x="457.574289143" y="841.588504805" type="line"/>
      <point x="381.25887732" y="722.160524196" type="line"/>
      <point x="315.129240523" y="475.66078671" type="line"/>
      <point x="663.266557529" y="873.723720767" type="line"/>
      <point x="702.898859282" y="927.608062959" type="line"/>
      <point x="711.24231813" y="958.708497128" type="line"/>
      <point x="791.869127149" y="971.236726507" type="line"/>
      <point x="871.970869387" y="1010.93236918" type="line"/>
      <point x="862.70035955" y="976.376331211" type="line"/>
      <point x="822.137951882" y="961.093881584" type="line"/>
      <point x="736.212897822" y="893.219574599" type="line"/>
      <point x="409.067785838" y="534.572750372" type="line"/>
      <point x="626.503133969" y="277.165563675" type="line"/>
      <point x="672.798941211" y="249.098032107" type="line"/>
      <point x="692.153094064" y="253.283653124" type="line"/>
      <point x="682.882584233" y="218.727615159" type="line"/>
      <point x="625.0811316" y="213.615793643" type="line"/>
      <point x="544.97938937" y="173.920150974" type="line"/>
      <point x="317.532414815" y="452.257994213" type="line"/>
      <point x="305.858730692" y="441.104748744" type="line"/>
    </contour>
  </outline>
</glyph>
<glyph name="M" format="1">
  <advance width="946"/>
  <unicode hex="004D"/>
  <outline>
    <contour>
      <point x="874.785192681" y="891.980104685" type="line"/>
      <point x="806.363244441" y="779.322714762" type="line"/>
      <point x="520.26676067" y="288.9116114" type="line"/>
      <point x="461.949406055" y="184.79471409" type="line"/>
      <point x="429.664550504" y="125.937466317" type="line"/>
      <point x="410.643420178" y="119.757126429" type="line"/>
      <point x="327.927695808" y="714.295332918" type="line"/>
      <point x="186.397912383" y="186.739819979" type="line"/>
      <point x="207.090265221" y="98.8315727954" type="line"/>
      <point x="248.009700954" y="108.972716751" type="line"/>
      <point x="238.739191123" y="74.4166787858" type="line"/>
      <point x="128.629630094" y="52.3089225791" type="line"/>
      <point x="14.2898532776" y="1.48866811345" type="line"/>
      <point x="23.5603631089" y="36.0447060789" type="line"/>
      <point x="66.333900809" y="53.0970576279" type="line"/>
      <point x="142.649312634" y="172.525038237" type="line"/>
      <point x="281.397943109" y="689.713739787" type="line"/>
      <point x="260.70559027" y="777.62198697" type="line"/>
      <point x="219.786154537" y="767.480843014" type="line"/>
      <point x="229.056664368" y="802.036880979" type="line"/>
      <point x="315.389812489" y="816.419212327" type="line"/>
      <point x="409.757402464" y="860.750109911" type="line"/>
      <point x="489.022873894" y="301.892026133" type="line"/>
      <point x="910.013130039" y="1023.29304895" type="line"/>
      <point x="996.346278153" y="1037.6753803" type="line"/>
      <point x="1088.81175509" y="1081.38824389" type="line"/>
      <point x="1079.54124528" y="1046.83220593" type="line"/>
      <point x="1038.66982061" y="1030.39788837" type="line"/>
      <point x="962.354408782" y="910.969907761" type="line"/>
      <point x="823.605778301" y="393.78120621" type="line"/>
      <point x="844.298131138" y="305.872959027" type="line"/>
      <point x="889.021792937" y="317.25017096" type="line"/>
      <point x="879.751283106" y="282.694132994" type="line"/>
      <point x="740.158970072" y="251.006849962" type="line"/>
      <point x="614.406515059" y="196.478391564" type="line"/>
      <point x="623.677024891" y="231.034429529" type="line"/>
      <point x="656.939997428" y="244.996611135" type="line"/>
      <point x="733.255409253" y="364.424591744" type="line"/>
    </contour>
  </outline>
</glyph>
<glyph name="O" format="1">
  <advance width="786"/>
  <unicode hex="004F"/>
  <outline>
    <contour>
      <point x="840.01641538" y="658.824514811" type="line"/>
      <point x="345.710571141" y="91.2989292749" type="line"/>
      <point x="126.29803844" y="399.58533875" type="line"/>
      <point x="601.417768562" y="940.899195655" type="line"/>
    </contour>
    <contour>
      <point x="239.494714476" y="475.269270639" type="line"/>
      <point x="396.731545557" y="152.038062202" type="line"/>
      <point x="728.982858309" y="591.203658449" type="line"/>
      <point x="572.271094021" y="887.267453599" type="line"/>
    </contour>
  </outline>
</glyph>
<glyph name="Q" format="1">
  <advance width="786"/>
  <unicode hex="0051"/>
  <outline>
    <contour>
      <point x="352.676983751" y="94.6139161682" type="line"/>
      <point x="126.916072429" y="401.889074615" type="line"/>
      <point x="597.613542497" y="939.663127678" type="line"/>
      <point x="841.252483358" y="663.43198654" type="line"/>
      <point x="549.803633615" y="208.082971901" type="line"/>
      <point x="375.502340142" y="102.030324033" type="line"/>
      <point x="479.146549821" y="96.8022668616" type="line"/>
      <point x="638.04805958" y="96.9108481556" type="line"/>
      <point x="696.014496006" y="122.054058417" type="line"/>
      <point x="689.525139124" y="97.8648318407" type="line"/>
      <point x="592.331440071" y="7.40280011104" type="line"/>
      <point x="499.553891197" y="4.59556494397" type="line"/>
      <point x="373.012308527" y="11.846974657" type="line"/>
      <point x="303.465155171" y="5.02166807817" type="line"/>
      <point x="274.363436759" y="-12.8457512219" type="line"/>
      <point x="208.362558479" y="-67.9375277195" type="line"/>
      <point x="220.15321533" y="-30.4597199012" type="line"/>
      <point x="346.067599202" y="86.1576236028" type="line"/>
      <point x="363.13860543" y="98.0131031063" type="line"/>
    </contour>
    <contour>
      <point x="238.567663492" y="471.813666842" type="line"/>
      <point x="234.925800247" y="199.353099889" type="line"/>
      <point x="398.942675584" y="153.807964122" type="line"/>
      <point x="728.364824321" y="588.899922585" type="line"/>
      <point x="572.271094021" y="887.267453599" type="line"/>
    </contour>
  </outline>
</glyph>
<glyph name="S" format="1">
  <advance width="525"/>
  <unicode hex="0053"/>
  <outline>
    <contour>
      <point x="557.231393305" y="734.124584993" type="line"/>
      <point x="569.139022886" y="797.926955161" type="line"/>
      <point x="543.289403276" y="853.667100289" type="line"/>
      <point x="452.437972968" y="848.331312308" type="line"/>
      <point x="264.329991818" y="635.800763923" type="line"/>
      <point x="382.318175715" y="541.65320854" type="line"/>
      <point x="543.217820638" y="529.793476614" type="line"/>
      <point x="549.455336404" y="420.365172573" type="line"/>
      <point x="186.88413292" y="39.6930912143" type="line"/>
      <point x="34.0940013876" y="30.0041326105" type="line"/>
      <point x="76.6213738823" y="162.637344902" type="line"/>
      <point x="88.0309971414" y="208.403045195" type="line"/>
      <point x="118.464805663" y="218.291589015" type="line"/>
      <point x="105.369119169" y="143.588573514" type="line"/>
      <point x="235.669971777" y="101.808909023" type="line"/>
      <point x="453.806722321" y="335.662480504" type="line"/>
      <point x="444.860070206" y="425.284212749" type="line"/>
      <point x="327.520035705" y="434.473924474" type="line"/>
      <point x="177.724051984" y="448.8899924" type="line"/>
      <point x="172.389581669" y="564.920487041" type="line"/>
      <point x="486.339930091" y="903.508139336" type="line"/>
      <point x="644.551389259" y="910.752745172" type="line"/>
      <point x="587.665201826" y="744.013128813" type="line"/>
    </contour>
  </outline>
</glyph>
<glyph name="V" format="1">
  <advance width="722"/>
  <unicode hex="0056"/>
  <outline>
    <contour>
      <point x="410.972519845" y="826.446672081" type="line"/>
      <point x="374.358371437" y="793.520769618" type="line"/>
      <point x="372.86129753" y="781.468256352" type="line"/>
      <point x="403.547815093" y="258.347562628" type="line"/>
      <point x="723.756195914" y="859.73120452" type="line"/>
      <point x="744.367367341" y="907.435206825" type="line"/>
      <point x="719.114831124" y="926.568178258" type="line"/>
      <point x="670.58694326" y="913.954898348" type="line"/>
      <point x="679.857453092" y="948.510936313" type="line"/>
      <point x="715.688583717" y="959.101714167" type="line"/>
      <point x="778.554335921" y="966.910488586" type="line"/>
      <point x="885.285660615" y="1015.2586071" type="line"/>
      <point x="876.015150778" y="980.702569132" type="line"/>
      <point x="846.556404304" y="967.976455503" type="line"/>
      <point x="772.950128836" y="868.355046692" type="line"/>
      <point x="477.370140367" y="329.649690222" type="line"/>
      <point x="362.424549308" y="108.29571445" type="line"/>
      <point x="314.871723493" y="92.8448647317" type="line"/>
      <point x="310.698249619" y="264.980087868" type="line"/>
      <point x="274.665475958" y="739.047877593" type="line"/>
      <point x="245.488686009" y="772.67771506" type="line"/>
      <point x="212.177702406" y="765.008707059" type="line"/>
      <point x="221.448212237" y="799.564745024" type="line"/>
      <point x="343.921507978" y="825.689722158" type="line"/>
      <point x="474.429245572" y="881.763265528" type="line"/>
      <point x="465.158735741" y="847.207227563" type="line"/>
    </contour>
  </outline>
</glyph>
<glyph name="W" format="1">
  <advance width="1000"/>
  <unicode hex="0057"/>
  <outline>
    <contour>
      <point x="647.741504197" y="201.000812763" type="line"/>
      <point x="643.873992381" y="416.345400192" type="line"/>
      <point x="629.748688937" y="768.201504904" type="line"/>
      <point x="327.679343588" y="205.306921859" type="line"/>
      <point x="261.612558581" y="75.5399130467" type="line"/>
      <point x="214.059732766" y="60.0890633279" type="line"/>
      <point x="224.014183312" y="171.624069472" type="line"/>
      <point x="269.982209976" y="728.063032215" type="line"/>
      <point x="237.880233879" y="770.205579105" type="line"/>
      <point x="212.177702406" y="765.008707059" type="line"/>
      <point x="221.448212237" y="799.564745024" type="line"/>
      <point x="337.264112364" y="823.526603197" type="line"/>
      <point x="461.114454344" y="877.437027607" type="line"/>
      <point x="451.843944513" y="842.880989641" type="line"/>
      <point x="410.972519845" y="826.446672081" type="line"/>
      <point x="365.585867929" y="777.001401528" type="line"/>
      <point x="359.192533179" y="740.225827743" type="line"/>
      <point x="315.549554335" y="253.938825631" type="line"/>
      <point x="530.820915583" y="655.095331571" type="line"/>
      <point x="690.889097694" y="960.50703272" type="line"/>
      <point x="721.322906215" y="970.39557654" type="line"/>
      <point x="721.188037826" y="863.102608272" type="line"/>
      <point x="734.704472092" y="382.770278614" type="line"/>
      <point x="1011.35324249" y="986.823940707" type="line"/>
      <point x="1015.08545196" y="997.499769093" type="line"/>
      <point x="977.802203562" y="1010.62080073" type="line"/>
      <point x="940.686993886" y="1001.71572475" type="line"/>
      <point x="949.957503723" y="1036.27176272" type="line"/>
      <point x="1045.801217" y="1053.74426401" type="line"/>
      <point x="1149.67937214" y="1101.16533153" type="line"/>
      <point x="1140.40886232" y="1066.60929357" type="line"/>
      <point x="1109.04800281" y="1053.26514595" type="line"/>
      <point x="1063.94636236" y="1008.11833013" type="line"/>
      <point x="752.183572382" y="341.13378248" type="line"/>
      <point x="713.409359951" y="258.087308131" type="line"/>
      <point x="695.294330011" y="216.451662482" type="line"/>
    </contour>
  </outline>
</glyph>
<glyph name="X" format="1">
  <advance width="667"/>
  <unicode hex="0058"/>
  <outline>
    <contour>
      <point x="615.357571576" y="196.787408558" type="line"/>
      <point x="551.849779845" y="189.821485076" type="line"/>
      <point x="477.454376713" y="151.979944374" type="line"/>
      <point x="397.019177995" y="447.592404657" type="line"/>
      <point x="334.444547121" y="359.96709225" type="line"/>
      <point x="110.346561423" y="32.6993845451" type="line"/>
      <point x="65.8599000192" y="31.9138009505" type="line"/>
      <point x="12.387740245" y="0.870634124704" type="line"/>
      <point x="21.6582500763" y="35.4266720902" type="line"/>
      <point x="47.3127704831" y="46.9167177404" type="line"/>
      <point x="118.257920674" y="120.438381153" type="line"/>
      <point x="126.436395727" y="131.507426577" type="line"/>
      <point x="384.985410872" y="483.63796122" type="line"/>
      <point x="329.070796589" y="689.431655495" type="line"/>
      <point x="269.385126583" y="764.670205909" type="line"/>
      <point x="227.514634334" y="754.220044958" type="line"/>
      <point x="233.646963155" y="783.550577206" type="line"/>
      <point x="376.0893908" y="858.222407582" type="line"/>
      <point x="410.213507595" y="800.96496067" type="line"/>
      <point x="465.201070896" y="591.715662599" type="line"/>
      <point x="721.490944947" y="948.369468925" type="line"/>
      <point x="817.547653089" y="979.580185355" type="line"/>
      <point x="811.367313201" y="956.542826712" type="line"/>
      <point x="771.446945057" y="940.417526148" type="line"/>
      <point x="685.761946329" y="841.077351141" type="line"/>
      <point x="475.02370799" y="553.900204114" type="line"/>
      <point x="555.884896432" y="285.764174113" type="line"/>
      <point x="597.023436902" y="225.528540489" type="line"/>
      <point x="624.628081407" y="231.343446524" type="line"/>
    </contour>
  </outline>
</glyph>
<glyph name="bracketleft" format="1">
  <advance width="333"/>
  <unicode hex="005B"/>
  <outline>
    <contour>
      <point x="22.2915587493" y="-172.557073847" type="line"/>
      <point x="69.1451691653" y="-23.7977105053" type="line"/>
      <point x="72.5443561033" y="-11.1271632514" type="line"/>
      <point x="84.0019904283" y="28.3453634372" type="line"/>
      <point x="88.0192113553" y="43.3196465556" type="line"/>
      <point x="246.853946464" y="635.379763697" type="line"/>
      <point x="250.871167391" y="650.354046815" type="line"/>
      <point x="261.353739667" y="692.664143312" type="line"/>
      <point x="295.462581777" y="845.694178201" type="line"/>
      <point x="308.03931135" y="863.449614269" type="line"/>
      <point x="399.673759443" y="891.120526859" type="line"/>
      <point x="492.544275511" y="923.398911177" type="line"/>
      <point x="496.396512644" y="918.341805551" type="line"/>
      <point x="488.36207079" y="888.393239314" type="line"/>
      <point x="479.922589808" y="869.879152354" type="line"/>
      <point x="443.782442189" y="858.136506567" type="line"/>
      <point x="383.913892729" y="832.375262318" type="line"/>
      <point x="354.887245853" y="763.01058625" type="line"/>
      <point x="338.176322625" y="703.956304715" type="line"/>
      <point x="326.742693833" y="661.337191224" type="line"/>
      <point x="167.907958724" y="69.2770740829" type="line"/>
      <point x="156.474329933" y="26.6579605925" type="line"/>
      <point x="141.356502742" y="-32.9301548864" type="line"/>
      <point x="135.464229251" y="-93.7265551565" type="line"/>
      <point x="188.534404836" y="-93.3064054143" type="line"/>
      <point x="224.674552455" y="-81.563759628" type="line"/>
      <point x="226.933693549" y="-86.0870313113" type="line"/>
      <point x="218.899251695" y="-116.035597548" type="line"/>
      <point x="211.33881063" y="-124.800907108" type="line"/>
      <point x="119.704362539" y="-152.471819698" type="line"/>
      <point x="26.8338464689" y="-184.750204016" type="line"/>
    </contour>
  </outline>
</glyph>
<glyph name="backslash" format="1">
  <advance width="606"/>
  <unicode hex="005C"/>
  <outline>
    <contour>
      <point x="357.494250197" y="879.518497976" type="line"/>
      <point x="490.031106286" y="169.735380442" type="line"/>
      <point x="433.918771825" y="151.503377773" type="line"/>
      <point x="301.381915736" y="861.286495308" type="line"/>
    </contour>
  </outline>
</glyph>
<glyph name="bracketright" format="1">
  <advance width="333"/>
  <unicode hex="005D"/>
  <outline>
    <contour>
      <point x="461.897472128" y="899.772152217" type="line"/>
      <point x="412.880742752" y="742.949713349" type="line"/>
      <point x="400.187040449" y="698.869714932" type="line"/>
      <point x="396.169819522" y="683.895431814" type="line"/>
      <point x="237.335084413" y="91.8353146722" type="line"/>
      <point x="233.317863486" y="76.8610315539" type="line"/>
      <point x="221.908240228" y="31.0953312612" type="line"/>
      <point x="188.726449101" y="-118.479099832" type="line"/>
      <point x="176.149719527" y="-136.2345359" type="line"/>
      <point x="84.5152714354" y="-163.90544849" type="line"/>
      <point x="-8.35524463393" y="-196.183832808" type="line"/>
      <point x="-12.2074817655" y="-191.126727181" type="line"/>
      <point x="-4.17303991171" y="-161.178160945" type="line"/>
      <point x="1.17627112532" y="-154.182753306" type="line"/>
      <point x="37.3164187446" y="-142.44010752" type="line"/>
      <point x="99.3240816318" y="-105.469200943" type="line"/>
      <point x="129.610802018" y="-34.6436399492" type="line"/>
      <point x="146.012708254" y="23.2587736544" type="line"/>
      <point x="157.446337044" y="65.8778871447" type="line"/>
      <point x="316.281072154" y="657.938004286" type="line"/>
      <point x="327.714700946" y="700.557117777" type="line"/>
      <point x="342.523511141" y="758.993365323" type="line"/>
      <point x="347.77374511" y="820.632616531" type="line"/>
      <point x="292.564456098" y="809.002804462" type="line"/>
      <point x="256.424308479" y="797.260158675" type="line"/>
      <point x="257.25533733" y="813.302109681" type="line"/>
      <point x="265.289779184" y="843.250675918" type="line"/>
      <point x="272.850220247" y="852.015985477" type="line"/>
      <point x="364.48466834" y="879.686898067" type="line"/>
      <point x="457.355184408" y="911.965282385" type="line"/>
    </contour>
  </outline>
</glyph>
<glyph name="asciicircum" format="1">
  <advance width="606"/>
  <unicode hex="005E"/>
  <outline>
    <contour>
      <point x="135.955691739" y="341.738491521" type="line"/>
      <point x="466.60779858" y="865.552914432" type="line"/>
      <point x="529.377528655" y="885.948036061" type="line"/>
      <point x="614.337119436" y="497.174039691" type="line"/>
      <point x="549.665276328" y="476.160884074" type="line"/>
      <point x="480.069677945" y="808.94213518" type="line"/>
      <point x="200.627534847" y="362.751647138" type="line"/>
    </contour>
  </outline>
</glyph>
<glyph name="underscore" format="1">
  <advance width="500"/>
  <unicode hex="005F"/>
  <outline>
    <contour>
      <point x="-38.6271242968" y="-143.983491523" type="line"/>
      <point x="-23.1762745782" y="-86.3900949136" type="line"/>
      <point x="452.35198357" y="68.1184022742" type="line"/>
      <point x="436.901133851" y="10.5250056649" type="line"/>
    </contour>
  </outline>
</glyph>
<glyph name="grave" format="1">
  <advance width="333"/>
  <unicode hex="0060"/>
  <outline>
    <contour>
      <point x="251.699141305" y="708.453494181" type="line"/>
      <point x="228.180679389" y="750.230607218" type="line"/>
      <point x="268.170009203" y="798.973643738" type="line"/>
      <point x="310.280556784" y="777.957936667" type="line"/>
      <point x="398.882010809" y="661.644507249" type="line"/>
      <point x="360.839750157" y="649.283827474" type="line"/>
    </contour>
  </outline>
</glyph>
<glyph name="b" format="1">
  <advance width="553"/>
  <unicode hex="0062"/>
  <outline>
    <contour>
      <point x="256.685748369" y="471.391816131" type="line"/>
      <point x="326.29880845" y="552.892355024" type="line"/>
      <point x="455.92445119" y="641.274617354" type="line"/>
      <point x="566.571298759" y="467.984974832" type="line"/>
      <point x="433.342639029" y="227.021461026" type="line"/>
      <point x="315.987763804" y="113.185270471" type="line"/>
      <point x="227.398529527" y="61.2687144468" type="line"/>
      <point x="115.836850723" y="62.8727677314" type="line"/>
      <point x="66.6699782733" y="9.04484239757" type="line"/>
      <point x="53.3071759789" y="11.0117780807" type="line"/>
      <point x="110.049330216" y="196.630915253" type="line"/>
      <point x="254.360266587" y="734.553239581" type="line"/>
      <point x="243.25355045" y="774.054399941" type="line"/>
      <point x="189.994385538" y="756.749448256" type="line"/>
      <point x="195.556691436" y="777.483071035" type="line"/>
      <point x="358.445306714" y="879.82751497" type="line"/>
      <point x="364.532679405" y="873.393724462" type="line"/>
    </contour>
    <contour>
      <point x="171.397057922" y="153.476266849" type="line"/>
      <point x="274.543261278" y="130.211539803" type="line"/>
      <point x="471.159685071" y="393.873911101" type="line"/>
      <point x="394.942916355" y="553.115471004" type="line"/>
      <point x="278.014030853" y="466.755710731" type="line"/>
      <point x="237.835711712" y="401.127872268" type="line"/>
    </contour>
  </outline>
</glyph>
<glyph name="d" format="1">
  <advance width="611"/>
  <unicode hex="0064"/>
  <outline>
    <contour>
      <point x="583.425821225" y="841.473119635" type="line"/>
      <point x="572.319105088" y="880.974279995" type="line"/>
      <point x="519.059940176" y="863.66932831" type="line"/>
      <point x="524.622246074" y="884.402951089" type="line"/>
      <point x="687.510861352" y="986.747395024" type="line"/>
      <point x="693.598234043" y="980.313604516" type="line"/>
      <point x="503.243765509" y="270.762958293" type="line"/>
      <point x="516.183633017" y="199.262095967" type="line"/>
      <point x="559.005181782" y="210.021273912" type="line"/>
      <point x="549.734671951" y="175.465235946" type="line"/>
      <point x="504.701993159" y="162.936156081" type="line"/>
      <point x="467.205749895" y="162.318972577" type="line"/>
      <point x="389.957177214" y="123.550380891" type="line"/>
      <point x="423.142023279" y="231.067315624" type="line"/>
      <point x="288.836169492" y="89.6427115556" type="line"/>
      <point x="240.713320755" y="65.5949523681" type="line"/>
      <point x="114.83778314" y="68.8569243411" type="line"/>
      <point x="100.034648855" y="259.619068154" type="line"/>
      <point x="247.529156329" y="505.217836876" type="line"/>
      <point x="345.436911505" y="585.397257261" type="line"/>
      <point x="423.588529636" y="630.768039545" type="line"/>
      <point x="526.875711256" y="630.681288046" type="line"/>
    </contour>
    <contour>
      <point x="499.991232746" y="530.468777946" type="line"/>
      <point x="479.421962511" y="560.586594758" type="line"/>
      <point x="383.38620496" y="568.286787884" type="line"/>
      <point x="192.974126587" y="324.515188427" type="line"/>
      <point x="273.544193695" y="136.195696412" type="line"/>
      <point x="415.578527278" y="264.359502425" type="line"/>
      <point x="460.12804047" y="381.877814694" type="line"/>
    </contour>
  </outline>
</glyph>
<glyph name="f" format="1">
  <advance width="333"/>
  <unicode hex="0066"/>
  <outline>
    <contour>
      <point x="522.081148456" y="842.570271678" type="line"/>
      <point x="508.814368295" y="831.950860153" type="line"/>
      <point x="451.843944513" y="842.880989641" type="line"/>
      <point x="341.080558177" y="656.532685733" type="line"/>
      <point x="314.814113655" y="558.623911498" type="line"/>
      <point x="440.638585267" y="603.71260949" type="line"/>
      <point x="417.603288952" y="540.500490124" type="line"/>
      <point x="299.672280931" y="502.182382821" type="line"/>
      <point x="212.220471523" y="176.203758014" type="line"/>
      <point x="225.16033903" y="104.702895689" type="line"/>
      <point x="267.981887796" y="115.462073633" type="line"/>
      <point x="258.711377965" y="80.9060356676" type="line"/>
      <point x="143.846534355" y="57.2531944891" type="line"/>
      <point x="20.9472488917" y="3.65178707408" type="line"/>
      <point x="30.2177587229" y="38.2078250395" type="line"/>
      <point x="74.8934094556" y="55.8782105773" type="line"/>
      <point x="132.331724154" y="150.246330486" type="line"/>
      <point x="219.783533562" y="476.224955294" type="line"/>
      <point x="152.92456596" y="450.295310953" type="line"/>
      <point x="159.722939836" y="475.636405461" type="line"/>
      <point x="234.925366286" y="532.66648397" type="line"/>
      <point x="247.90408005" y="581.044937122" type="line"/>
      <point x="332.346900923" y="759.89263312" type="line"/>
      <point x="407.903300498" y="853.838902318" type="line"/>
      <point x="505.526044213" y="929.719867969" type="line"/>
      <point x="545.875457023" y="931.264102456" type="line"/>
    </contour>
  </outline>
</glyph>
<glyph name="h" format="1">
  <advance width="582"/>
  <unicode hex="0068"/>
  <outline>
    <contour>
      <point x="216.479934794" y="784.281444912" type="line"/>
      <point x="379.368550072" y="886.625888847" type="line"/>
      <point x="385.455922764" y="880.192098339" type="line"/>
      <point x="280.390144676" y="488.557001397" type="line"/>
      <point x="373.065561543" y="588.065576493" type="line"/>
      <point x="455.92445119" y="641.274617354" type="line"/>
      <point x="560.981932391" y="492.455435215" type="line"/>
      <point x="501.341652477" y="270.144924304" type="line"/>
      <point x="514.281519984" y="198.644061979" type="line"/>
      <point x="552.347786168" y="207.858154951" type="line"/>
      <point x="543.077276337" y="173.302116986" type="line"/>
      <point x="468.156806411" y="162.627989571" type="line"/>
      <point x="389.006120697" y="123.241363897" type="line"/>
      <point x="476.7669471" y="450.371856636" type="line"/>
      <point x="410.444832077" y="562.358197648" type="line"/>
      <point x="260.613057036" y="414.837453737" type="line"/>
      <point x="195.101454229" y="170.641452115" type="line"/>
      <point x="208.041321737" y="99.1405897898" type="line"/>
      <point x="249.911813987" y="109.59075074" type="line"/>
      <point x="240.641304155" y="75.0347127745" type="line"/>
      <point x="126.727517061" y="51.6908885904" type="line"/>
      <point x="4.77928811464" y="-1.6015018303" type="line"/>
      <point x="14.0497979459" y="32.9545361352" type="line"/>
      <point x="57.7743921623" y="50.3159046786" type="line"/>
      <point x="115.212706861" y="144.684024588" type="line"/>
      <point x="275.283509946" y="741.351613457" type="line"/>
      <point x="264.176793809" y="780.852773818" type="line"/>
      <point x="210.917628896" y="763.547822133" type="line"/>
    </contour>
  </outline>
</glyph>
<glyph name="k" format="1">
  <advance width="556"/>
  <unicode hex="006B"/>
  <outline>
    <contour>
      <point x="231.696839055" y="789.225716822" type="line"/>
      <point x="394.585454333" y="891.570160757" type="line"/>
      <point x="400.672827024" y="885.136370249" type="line"/>
      <point x="259.452060596" y="358.732725242" type="line"/>
      <point x="347.111188954" y="449.25117383" type="line"/>
      <point x="532.723028616" y="655.713365559" type="line"/>
      <point x="627.828680245" y="686.615064997" type="line"/>
      <point x="618.558170414" y="652.059027031" type="line"/>
      <point x="501.320267918" y="564.547398826" type="line"/>
      <point x="347.423260883" y="408.345545401" type="line"/>
      <point x="387.27772231" y="349.795613654" type="line"/>
      <point x="468.483719065" y="244.748263422" type="line"/>
      <point x="534.49070722" y="215.725047199" type="line"/>
      <point x="527.38331635" y="189.232084759" type="line"/>
      <point x="427.120397949" y="126.162283266" type="line"/>
      <point x="252.962703714" y="334.543498666" type="line"/>
      <point x="210.31835849" y="175.585724025" type="line"/>
      <point x="223.258225998" y="104.0848617" type="line"/>
      <point x="264.177661731" y="114.226005656" type="line"/>
      <point x="254.9071519" y="79.6699676901" type="line"/>
      <point x="142.895477839" y="56.9441774947" type="line"/>
      <point x="19.0451358591" y="3.03375308533" type="line"/>
      <point x="28.3156456903" y="37.5897910508" type="line"/>
      <point x="72.991296423" y="55.2601765886" type="line"/>
      <point x="130.429611121" y="149.628296498" type="line"/>
      <point x="290.500414206" y="746.295885367" type="line"/>
      <point x="279.393698069" y="785.797045728" type="line"/>
      <point x="226.134533157" y="768.492094043" type="line"/>
    </contour>
  </outline>
</glyph>
<glyph name="m" format="1">
  <advance width="883"/>
  <unicode hex="006D"/>
  <outline>
    <contour>
      <point x="149.378290886" y="498.561780873" type="line"/>
      <point x="310.412804197" y="593.995017214" type="line"/>
      <point x="317.736244866" y="592.168698435" type="line"/>
      <point x="291.469800345" y="494.2599242" type="line"/>
      <point x="376.869787608" y="589.301644471" type="line"/>
      <point x="463.53290332" y="643.746753309" type="line"/>
      <point x="569.844348159" y="580.503448817" type="line"/>
      <point x="663.137799013" y="682.315759778" type="line"/>
      <point x="748.849858209" y="736.451851621" type="line"/>
      <point x="841.75659956" y="597.353663696" type="line"/>
      <point x="778.099098718" y="360.068869667" type="line"/>
      <point x="791.038966226" y="288.568007342" type="line"/>
      <point x="834.811571508" y="299.636202281" type="line"/>
      <point x="825.541061677" y="265.080164315" type="line"/>
      <point x="744.914252653" y="252.551934934" type="line"/>
      <point x="665.763566939" y="213.16530926" type="line"/>
      <point x="753.524393341" y="540.295802" type="line"/>
      <point x="706.223408645" y="658.462482899" type="line"/>
      <point x="557.34269012" y="511.250755982" type="line"/>
      <point x="491.831087314" y="267.05475436" type="line"/>
      <point x="504.770954821" y="195.553892035" type="line"/>
      <point x="547.592503587" y="206.313069979" type="line"/>
      <point x="538.321993756" y="171.757032014" type="line"/>
      <point x="423.457150146" y="148.104190835" type="line"/>
      <point x="300.557864682" y="94.5027834201" type="line"/>
      <point x="309.828374513" y="129.058821386" type="line"/>
      <point x="354.504025246" y="146.729206924" type="line"/>
      <point x="411.942339945" y="241.097326833" type="line"/>
      <point x="467.256381937" y="447.281686693" type="line"/>
      <point x="419.95539724" y="565.448367592" type="line"/>
      <point x="271.074678715" y="418.236640675" type="line"/>
      <point x="205.563075909" y="174.040639053" type="line"/>
      <point x="218.502943416" y="102.539776728" type="line"/>
      <point x="257.520266117" y="112.062886695" type="line"/>
      <point x="248.249756286" y="77.5068487295" type="line"/>
      <point x="139.091251773" y="55.7081095172" type="line"/>
      <point x="14.2898532776" y="1.48866811345" type="line"/>
      <point x="23.5603631089" y="36.0447060789" type="line"/>
      <point x="68.2360138416" y="53.7150916167" type="line"/>
      <point x="125.67432854" y="148.083211526" type="line"/>
      <point x="195.203152274" y="407.253496266" type="line"/>
      <point x="175.914906146" y="477.743107563" type="line"/>
      <point x="140.725815043" y="466.309478771" type="line"/>
    </contour>
  </outline>
</glyph>
<glyph name="p" format="1">
  <advance width="601"/>
  <unicode hex="0070"/>
  <outline>
    <contour>
      <point x="141.769838756" y="496.089644918" type="line"/>
      <point x="302.804352066" y="591.522881259" type="line"/>
      <point x="310.127792735" y="589.69656248" type="line"/>
      <point x="280.462161276" y="479.117240991" type="line"/>
      <point x="381.62507019" y="590.846729443" type="line"/>
      <point x="473.994525" y="647.145940247" type="line"/>
      <point x="610.628915503" y="483.351624505" type="line"/>
      <point x="468.246718671" y="234.156635083" type="line"/>
      <point x="336.95901823" y="113.690470743" type="line"/>
      <point x="264.489733662" y="73.3203772274" type="line"/>
      <point x="170.452111278" y="69.052257134" type="line"/>
      <point x="112.047899342" y="-148.650782048" type="line"/>
      <point x="124.987766849" y="-220.151644374" type="line"/>
      <point x="167.809315616" y="-209.392466429" type="line"/>
      <point x="158.538805785" y="-243.948504394" type="line"/>
      <point x="40.5837922311" y="-279.120024895" type="line"/>
      <point x="-79.2253232891" y="-321.202752988" type="line"/>
      <point x="-69.9548134578" y="-286.646715023" type="line"/>
      <point x="-25.2791627255" y="-268.976329485" type="line"/>
      <point x="32.1591519729" y="-174.608209576" type="line"/>
      <point x="187.594700143" y="404.781360311" type="line"/>
      <point x="168.306454016" y="475.270971608" type="line"/>
      <point x="133.117362913" y="463.837342816" type="line"/>
    </contour>
    <contour>
      <point x="196.718555801" y="166.961031369" type="line"/>
      <point x="306.879182832" y="140.718117611" type="line"/>
      <point x="516.453369795" y="413.848032504" type="line"/>
      <point x="422.523555328" y="562.076963841" type="line"/>
      <point x="291.091821687" y="460.490320313" type="line"/>
      <point x="260.99409063" y="406.549561263" type="line"/>
    </contour>
  </outline>
</glyph>
<glyph name="q" format="1">
  <advance width="560"/>
  <unicode hex="0071"/>
  <outline>
    <contour>
      <point x="277.945503152" y="100.824590696" type="line"/>
      <point x="222.643246945" y="59.7236294749" type="line"/>
      <point x="96.3264449237" y="245.796652968" type="line"/>
      <point x="248.528223913" y="499.233680266" type="line"/>
      <point x="345.103888977" y="587.391976131" type="line"/>
      <point x="425.490642668" y="631.386073534" type="line"/>
      <point x="545.587824588" y="635.709760001" type="line"/>
      <point x="601.769120712" y="686.559498623" type="line"/>
      <point x="613.349837639" y="668.24159494" type="line"/>
      <point x="551.921362484" y="513.69510875" type="line"/>
      <point x="399.266967263" y="-55.3276497471" type="line"/>
      <point x="412.20683477" y="-126.828512072" type="line"/>
      <point x="455.028383538" y="-116.069334127" type="line"/>
      <point x="445.757873707" y="-150.625372093" type="line"/>
      <point x="329.704973184" y="-185.178858605" type="line"/>
      <point x="196.581066437" y="-231.587824619" type="line"/>
      <point x="205.851576269" y="-197.031786654" type="line"/>
      <point x="261.939905196" y="-175.653197184" type="line"/>
      <point x="319.378219894" y="-81.2850772746" type="line"/>
      <point x="394.160332532" y="197.466962313" type="line"/>
    </contour>
    <contour>
      <point x="491.500685761" y="560.305360951" type="line"/>
      <point x="390.994657091" y="570.758923839" type="line"/>
      <point x="192.665109593" y="323.363320495" type="line"/>
      <point x="271.642080662" y="135.577662423" type="line"/>
      <point x="345.347433207" y="180.555227668" type="line"/>
      <point x="410.847250229" y="259.667830651" type="line"/>
    </contour>
  </outline>
</glyph>
<glyph name="r" format="1">
  <advance width="395"/>
  <unicode hex="0072"/>
  <outline>
    <contour>
      <point x="154.133573468" y="500.106865844" type="line"/>
      <point x="315.168086778" y="595.540102186" type="line"/>
      <point x="322.491527447" y="593.713783407" type="line"/>
      <point x="290.662777027" y="475.071386392" type="line"/>
      <point x="364.317063569" y="568.399621601" type="line"/>
      <point x="455.92445119" y="641.274617354" type="line"/>
      <point x="497.224920519" y="643.127868836" type="line"/>
      <point x="451.583372547" y="502.122564024" type="line"/>
      <point x="431.611185705" y="495.633207142" type="line"/>
      <point x="382.105180853" y="527.914993399" type="line"/>
      <point x="263.469281523" y="373.70700836" type="line"/>
      <point x="210.31835849" y="175.585724025" type="line"/>
      <point x="232.768791161" y="107.175031644" type="line"/>
      <point x="281.296679024" y="119.788311554" type="line"/>
      <point x="272.026169193" y="85.2322735889" type="line"/>
      <point x="140.04230829" y="56.0171265116" type="line"/>
      <point x="19.0451358591" y="3.03375308533" type="line"/>
      <point x="28.3156456903" y="37.5897910508" type="line"/>
      <point x="72.991296423" y="55.2601765886" type="line"/>
      <point x="130.429611121" y="149.628296498" type="line"/>
      <point x="199.958434855" y="408.798581238" type="line"/>
      <point x="180.670188727" y="479.288192535" type="line"/>
      <point x="145.481097624" y="467.854563743" type="line"/>
    </contour>
  </outline>
</glyph>
<glyph name="t" format="1">
  <advance width="326"/>
  <unicode hex="0074"/>
  <outline>
    <contour>
      <point x="137.731667232" y="442.204452241" type="line"/>
      <point x="144.221024114" y="466.393678817" type="line"/>
      <point x="229.219027188" y="530.812382004" type="line"/>
      <point x="250.850216794" y="611.443137257" type="line"/>
      <point x="271.458333285" y="701.204635922" type="line"/>
      <point x="364.040782957" y="771.242061867" type="line"/>
      <point x="372.054274214" y="762.279718545" type="line"/>
      <point x="317.712239333" y="595.315285237" type="line"/>
      <point x="305.969593547" y="551.544303814" type="line"/>
      <point x="438.118438246" y="600.790839637" type="line"/>
      <point x="412.872011903" y="535.80881835" type="line"/>
      <point x="291.136777817" y="496.25464307" type="line"/>
      <point x="210.174325291" y="194.465244838" type="line"/>
      <point x="241.160261075" y="131.982292208" type="line"/>
      <point x="303.143918429" y="172.099785587" type="line"/>
      <point x="310.254364236" y="156.535251667" type="line"/>
      <point x="251.315920696" y="92.1721148535" type="line"/>
      <point x="194.111551457" y="50.4531196437" type="line"/>
      <point x="122.251136068" y="138.559251074" type="line"/>
      <point x="211.248030448" y="470.297215542" type="line"/>
    </contour>
  </outline>
</glyph>
<glyph name="v" format="1">
  <advance width="565"/>
  <unicode hex="0076"/>
  <outline>
    <contour>
      <point x="615.705000865" y="651.131976048" type="line"/>
      <point x="541.741697329" y="556.651872907" type="line"/>
      <point x="349.172609869" y="220.702205204" type="line"/>
      <point x="305.619109322" y="139.257232685" type="line"/>
      <point x="276.496440313" y="82.4789038264" type="line"/>
      <point x="228.943614498" y="67.0280541076" type="line"/>
      <point x="189.895742429" y="478.079907744" type="line"/>
      <point x="170.610551239" y="506.512022681" type="line"/>
      <point x="138.892663673" y="498.309180736" type="line"/>
      <point x="147.545139516" y="530.561482838" type="line"/>
      <point x="253.850474479" y="551.433171067" type="line"/>
      <point x="369.141307813" y="602.562442527" type="line"/>
      <point x="360.488831969" y="570.310140426" type="line"/>
      <point x="313.269028683" y="552.864571837" type="line"/>
      <point x="283.621292881" y="523.253656266" type="line"/>
      <point x="280.438155744" y="482.263827793" type="line"/>
      <point x="304.616986803" y="187.298885655" type="line"/>
      <point x="406.844870024" y="367.719449812" type="line"/>
      <point x="479.545045113" y="502.796164387" type="line"/>
      <point x="520.173359512" y="592.753846329" type="line"/>
      <point x="505.382444975" y="615.286004701" type="line"/>
      <point x="467.007161794" y="604.920043796" type="line"/>
      <point x="475.659637638" y="637.172345897" type="line"/>
      <point x="561.041729243" y="651.24566025" type="line"/>
      <point x="654.458262701" y="695.267540839" type="line"/>
      <point x="645.805786858" y="663.015238738" type="line"/>
    </contour>
  </outline>
</glyph>
<glyph name="w" format="1">
  <advance width="834"/>
  <unicode hex="0077"/>
  <outline>
    <contour>
      <point x="559.589611466" y="674.95746974" type="line"/>
      <point x="562.139873894" y="590.61766007" type="line"/>
      <point x="581.8964449" y="292.112914091" type="line"/>
      <point x="665.865264985" y="449.777353412" type="line"/>
      <point x="756.680470011" y="626.489713636" type="line"/>
      <point x="774.462477424" y="670.120078155" type="line"/>
      <point x="746.950800114" y="693.776321272" type="line"/>
      <point x="715.232912548" y="685.573479327" type="line"/>
      <point x="723.885388391" y="717.825781429" type="line"/>
      <point x="813.071706061" y="733.135163759" type="line"/>
      <point x="910.292465583" y="778.393112326" type="line"/>
      <point x="901.639989739" y="746.140810224" type="line"/>
      <point x="876.294486332" y="735.802632508" type="line"/>
      <point x="788.542390777" y="615.813034767" type="line"/>
      <point x="675.663896545" y="415.108481729" type="line"/>
      <point x="592.670138511" y="254.606472601" type="line"/>
      <point x="550.400717006" y="171.475798206" type="line"/>
      <point x="506.652117257" y="157.261016465" type="line"/>
      <point x="482.992243117" y="509.173538036" type="line"/>
      <point x="450.992399027" y="454.614744997" type="line"/>
      <point x="398.9274009" y="364.095445925" type="line"/>
      <point x="234.649953596" y="68.8821560739" type="line"/>
      <point x="189.95029733" y="54.3583573382" type="line"/>
      <point x="196.77224278" y="409.866249125" type="line"/>
      <point x="164.904212141" y="504.657920715" type="line"/>
      <point x="138.892663673" y="498.309180736" type="line"/>
      <point x="147.545139516" y="530.561482838" type="line"/>
      <point x="256.703644028" y="552.36022205" type="line"/>
      <point x="373.896590394" y="604.107527499" type="line"/>
      <point x="365.244114551" y="571.855225397" type="line"/>
      <point x="326.583819911" y="557.190809758" type="line"/>
      <point x="283.027264426" y="517.803333599" type="line"/>
      <point x="279.106065634" y="490.242703273" type="line"/>
      <point x="273.706122554" y="198.284581518" type="line"/>
      <point x="537.715311591" y="667.85007887" type="line"/>
    </contour>
  </outline>
</glyph>
<glyph name="y" format="1">
  <advance width="556"/>
  <unicode hex="0079"/>
  <outline>
    <contour>
      <point x="512.447934652" y="563.957148025" type="line"/>
      <point x="526.188715604" y="595.759816227" type="line"/>
      <point x="493.969766779" y="611.577800768" type="line"/>
      <point x="469.860331343" y="605.847094779" type="line"/>
      <point x="478.512807187" y="638.09939688" type="line"/>
      <point x="564.845955308" y="652.481728227" type="line"/>
      <point x="659.213545283" y="696.812625811" type="line"/>
      <point x="650.561069439" y="664.56032371" type="line"/>
      <point x="623.313452995" y="653.604112003" type="line"/>
      <point x="506.033649307" y="488.270664682" type="line"/>
      <point x="168.349223132" y="-113.533977437" type="line"/>
      <point x="-10.4162315884" y="-300.948248263" type="line"/>
      <point x="-57.1380285527" y="-300.357146977" type="line"/>
      <point x="-11.1363975834" y="-206.550644198" type="line"/>
      <point x="1.22733712853" y="-202.533423271" type="line"/>
      <point x="42.623828589" y="-213.266518998" type="line"/>
      <point x="186.770215128" y="-28.6889674956" type="line"/>
      <point x="227.494551659" y="48.682367238" type="line"/>
      <point x="218.115799948" y="194.942661923" type="line"/>
      <point x="195.4130922" y="463.049207768" type="line"/>
      <point x="161.099986076" y="503.421852737" type="line"/>
      <point x="144.59900277" y="500.163282702" type="line"/>
      <point x="153.251478614" y="532.415584804" type="line"/>
      <point x="259.556813577" y="553.287273033" type="line"/>
      <point x="373.896590394" y="604.107527499" type="line"/>
      <point x="365.244114551" y="571.855225397" type="line"/>
      <point x="328.485932944" y="557.808843747" type="line"/>
      <point x="289.04262052" y="520.809303498" type="line"/>
      <point x="285.574471919" y="475.52102029" type="line"/>
      <point x="294.527233907" y="301.784295324" type="line"/>
      <point x="309.039246856" y="190.838689497" type="line"/>
    </contour>
  </outline>
</glyph>
<glyph name="braceleft" format="1">
  <advance width="333"/>
  <unicode hex="007B"/>
  <outline>
    <contour>
      <point x="322.305593056" y="534.771485103" type="line"/>
      <point x="200.390534453" y="352.1600188" type="line"/>
      <point x="235.471817637" y="211.096596161" type="line"/>
      <point x="182.011877611" y="11.8234438934" type="line"/>
      <point x="220.777359193" y="-112.270976758" type="line"/>
      <point x="117.847205636" y="-117.32553093" type="line"/>
      <point x="122.188284279" y="21.8265223991" type="line"/>
      <point x="174.103139334" y="215.340335006" type="line"/>
      <point x="139.52291741" y="332.38293116" type="line"/>
      <point x="248.576234978" y="492.940506661" type="line"/>
      <point x="306.053395933" y="707.187942047" type="line"/>
      <point x="382.746786414" y="860.385526543" type="line"/>
      <point x="499.201671125" y="925.562030138" type="line"/>
      <point x="379.782754011" y="749.018920489" type="line"/>
    </contour>
  </outline>
</glyph>
<glyph name="bar" format="1">
  <advance width="606"/>
  <unicode hex="007C"/>
  <outline>
    <contour>
      <point x="485.886879897" y="921.235792217" type="line"/>
      <point x="539.14604481" y="938.540743902" type="line"/>
      <point x="317.889876837" y="113.80330446" type="line"/>
      <point x="264.630711924" y="96.4983527747" type="line"/>
    </contour>
  </outline>
</glyph>
<glyph name="braceright" format="1">
  <advance width="333"/>
  <unicode hex="007D"/>
  <outline>
    <contour>
      <point x="184.006957838" y="41.9126270335" type="line"/>
      <point x="103.914380418" y="-123.955504716" type="line"/>
      <point x="-12.2314872987" y="-187.980140379" type="line"/>
      <point x="106.878412823" y="-12.5888986624" type="line"/>
      <point x="160.33835285" y="186.684253605" type="line"/>
      <point x="285.034564403" y="379.662531299" type="line"/>
      <point x="247.172128268" y="510.359142548" type="line"/>
      <point x="304.649289223" y="724.606577934" type="line"/>
      <point x="266.192824633" y="849.852866516" type="line"/>
      <point x="368.813961198" y="853.755552757" type="line"/>
      <point x="367.872069492" y="727.274046682" type="line"/>
      <point x="310.394908537" y="513.026611296" type="line"/>
      <point x="345.902181446" y="399.439618939" type="line"/>
      <point x="235.921812893" y="235.42643964" type="line"/>
    </contour>
  </outline>
</glyph>
<glyph name="asciitilde" format="1">
  <advance width="606"/>
  <unicode hex="007E"/>
  <outline>
    <contour>
      <point x="624.867702777" y="533.190962583" type="line"/>
      <point x="458.702983165" y="360.385541023" type="line"/>
      <point x="347.735332815" y="367.439916973" type="line"/>
      <point x="265.704417082" y="372.330323479" type="line"/>
      <point x="137.080896861" y="235.906408179" type="line"/>
      <point x="113.088434156" y="256.500264539" type="line"/>
      <point x="282.367329246" y="437.677778619" type="line"/>
      <point x="392.050900551" y="432.309104544" type="line"/>
      <point x="475.056878333" y="424.581128231" type="line"/>
      <point x="600.875240071" y="553.784818943" type="line"/>
    </contour>
  </outline>
</glyph>
<glyph name="exclamdown" format="1">
  <advance width="278"/>
  <unicode hex="00A1"/>
  <outline>
    <contour>
      <point x="7.50675408555" y="-234.139908196" type="line"/>
      <point x="15.2321789449" y="-205.343209892" type="line"/>
      <point x="51.2461890245" y="-93.7526373741" type="line"/>
      <point x="70.834287336" y="-36.9178916575" type="line"/>
      <point x="179.566368162" y="290.717801354" type="line"/>
      <point x="187.291793022" y="319.514499658" type="line"/>
      <point x="221.02876635" y="354.659937941" type="line"/>
      <point x="228.99424654" y="351.990768224" type="line"/>
      <point x="218.535679798" y="306.534084925" type="line"/>
      <point x="149.012965937" y="-36.7511925362" type="line"/>
      <point x="122.914560147" y="-156.686074387" type="line"/>
      <point x="39.8426756396" y="-223.633330388" type="line"/>
    </contour>
    <contour>
      <point x="314.055101403" y="533.142200086" type="line"/>
      <point x="239.377741746" y="448.944708289" type="line"/>
      <point x="204.041562509" y="498.448096671" type="line"/>
      <point x="276.17476961" y="582.870405417" type="line"/>
    </contour>
  </outline>
</glyph>
<glyph name="cent" format="1">
  <advance width="500"/>
  <unicode hex="00A2"/>
  <outline>
    <contour>
      <point x="247.127606102" y="141.281435711" type="line"/>
      <point x="321.169036109" y="142.206785725" type="line"/>
      <point x="437.290898294" y="209.37800819" type="line"/>
      <point x="442.451220001" y="199.488613885" type="line"/>
      <point x="413.232528862" y="155.296632236" type="line"/>
      <point x="264.822756191" y="71.3256583577" type="line"/>
      <point x="207.402337152" y="57.9259443673" type="line"/>
      <point x="152.343191212" y="-56.6983812362" type="line"/>
      <point x="113.349874045" y="-69.3680780055" type="line"/>
      <point x="175.921449982" y="60.3147307617" type="line"/>
      <point x="117.972909213" y="116.139926419" type="line"/>
      <point x="126.616220246" y="274.564717601" type="line"/>
      <point x="283.573281816" y="529.546829871" type="line"/>
      <point x="368.928312951" y="588.824227386" type="line"/>
      <point x="454.331355151" y="641.808451297" type="line"/>
      <point x="508.439444575" y="756.123759906" type="line"/>
      <point x="546.481705227" y="768.484439681" type="line"/>
      <point x="492.373615803" y="654.169131072" type="line"/>
      <point x="560.423695253" y="648.941924385" type="line"/>
      <point x="509.789864306" y="495.799906264" type="line"/>
      <point x="483.160281849" y="487.147430421" type="line"/>
      <point x="494.995894833" y="560.389560996" type="line"/>
      <point x="457.022595843" y="580.646617175" type="line"/>
    </contour>
    <contour>
      <point x="423.354584179" y="578.118914846" type="line"/>
      <point x="387.808465015" y="571.826591726" type="line"/>
      <point x="220.221743032" y="335.471400133" type="line"/>
      <point x="204.179919794" y="230.370184498" type="line"/>
      <point x="223.777182918" y="161.032441133" type="line"/>
    </contour>
  </outline>
</glyph>
<glyph name="sterling" format="1">
  <advance width="500"/>
  <unicode hex="00A3"/>
  <outline>
    <contour>
      <point x="448.304213275" y="473.71908276" type="line"/>
      <point x="277.708068797" y="423.546346438" type="line"/>
      <point x="111.67254166" y="108.835501786" type="line"/>
      <point x="240.326177288" y="157.997837563" type="line"/>
      <point x="387.787948379" y="199.602298087" type="line"/>
      <point x="409.35323126" y="205.557821025" type="line"/>
      <point x="448.367499025" y="257.138427353" type="line"/>
      <point x="471.093778347" y="319.198678787" type="line"/>
      <point x="495.82124777" y="327.233120641" type="line"/>
      <point x="450.086732602" y="156.756666678" type="line"/>
      <point x="396.353566901" y="118.268458316" type="line"/>
      <point x="231.985773376" y="84.8399070339" type="line"/>
      <point x="85.0220086074" y="61.2721163855" type="line"/>
      <point x="28.3187006272" y="-4.46770530959" type="line"/>
      <point x="7.39545726866" y="-11.2660791859" type="line"/>
      <point x="22.5372899931" y="45.175449491" type="line"/>
      <point x="67.0208964604" y="88.0185294462" type="line"/>
      <point x="96.953643722" y="121.927899751" type="line"/>
      <point x="191.092964152" y="362.808063997" type="line"/>
      <point x="200.363473983" y="397.364101962" type="line"/>
      <point x="108.134997435" y="364.242866705" type="line"/>
      <point x="129.649214311" y="418.549059608" type="line"/>
      <point x="212.415136764" y="442.286951317" type="line"/>
      <point x="245.170938166" y="564.384952128" type="line"/>
      <point x="391.240388334" y="788.491447177" type="line"/>
      <point x="575.859270289" y="916.822802797" type="line"/>
      <point x="661.028367032" y="917.157902009" type="line"/>
      <point x="619.998068443" y="796.577202982" type="line"/>
      <point x="610.44254715" y="757.722710282" type="line"/>
      <point x="579.057682112" y="747.525149468" type="line"/>
      <point x="582.735770638" y="848.609144177" type="line"/>
      <point x="521.391097869" y="849.70629622" type="line"/>
      <point x="382.494945296" y="726.767995925" type="line"/>
      <point x="319.497379636" y="569.608756876" type="line"/>
      <point x="291.994867137" y="467.092510912" type="line"/>
      <point x="466.94125507" y="530.244811482" type="line"/>
    </contour>
  </outline>
</glyph>
<glyph name="currency" format="1">
  <advance width="500"/>
  <unicode hex="00A4"/>
  <outline>
    <contour>
      <point x="268.137272819" y="594.97933554" type="line"/>
      <point x="399.689034126" y="680.833045057" type="line"/>
      <point x="505.901401893" y="672.233584134" type="line"/>
      <point x="566.384930407" y="742.356060609" type="line"/>
      <point x="596.560787937" y="702.742066532" type="line"/>
      <point x="534.817185913" y="631.158705131" type="line"/>
      <point x="537.061486284" y="503.609531168" type="line"/>
      <point x="459.108022291" y="348.951061746" type="line"/>
      <point x="490.567958866" y="307.651365794" type="line"/>
      <point x="433.864650885" y="241.911544099" type="line"/>
      <point x="403.046753834" y="282.368389114" type="line"/>
      <point x="269.2838625" y="194.744777676" type="line"/>
      <point x="161.478398695" y="203.878072543" type="line"/>
      <point x="100.994870181" y="133.755596067" type="line"/>
      <point x="72.103091696" y="171.683888269" type="line"/>
      <point x="133.846693718" y="243.26724967" type="line"/>
      <point x="131.911410342" y="371.968291565" type="line"/>
      <point x="209.55585734" y="525.474893054" type="line"/>
      <point x="178.095920767" y="566.774589007" type="line"/>
      <point x="237.319375768" y="635.436180555" type="line"/>
    </contour>
    <contour>
      <point x="188.332761798" y="391.352162165" type="line"/>
      <point x="287.515865167" y="262.704985675" type="line"/>
      <point x="480.949151823" y="485.3775285" type="line"/>
      <point x="384.310201006" y="613.799888041" type="line"/>
    </contour>
  </outline>
</glyph>
<glyph name="yen" format="1">
  <advance width="500"/>
  <unicode hex="00A5"/>
  <outline>
    <contour>
      <point x="551.726263282" y="580.925299528" type="line"/>
      <point x="539.674600501" y="536.002450173" type="line"/>
      <point x="407.477744736" y="493.049087955" type="line"/>
      <point x="371.223679325" y="412.924383459" type="line"/>
      <point x="361.335135504" y="376.064609629" type="line"/>
      <point x="509.699952046" y="424.271260751" type="line"/>
      <point x="497.648289266" y="379.348411396" type="line"/>
      <point x="349.283472724" y="331.141760274" type="line"/>
      <point x="322.398994214" y="230.929250174" type="line"/>
      <point x="336.433951437" y="140.85788403" type="line"/>
      <point x="374.500217621" y="150.071977003" type="line"/>
      <point x="365.22970779" y="115.515939038" type="line"/>
      <point x="245.609581598" y="90.3180128872" type="line"/>
      <point x="134.12297433" y="40.4248094045" type="line"/>
      <point x="143.393484161" y="74.98084737" type="line"/>
      <point x="183.313852313" y="91.1061479361" type="line"/>
      <point x="252.971868524" y="208.371009585" type="line"/>
      <point x="279.856347034" y="308.583519685" type="line"/>
      <point x="131.491530492" y="260.376868562" type="line"/>
      <point x="143.543193273" y="305.299717917" type="line"/>
      <point x="291.908009815" y="353.50636904" type="line"/>
      <point x="296.852281725" y="371.936255955" type="line"/>
      <point x="300.725469453" y="405.790059886" type="line"/>
      <point x="296.20413233" y="456.894099613" type="line"/>
      <point x="173.517841728" y="417.030907339" type="line"/>
      <point x="185.569504508" y="461.953756694" type="line"/>
      <point x="291.136777817" y="496.25464307" type="line"/>
      <point x="269.250258194" y="657.37723764" type="line"/>
      <point x="205.616328924" y="750.25924089" type="line"/>
      <point x="214.577821762" y="783.663410923" type="line"/>
      <point x="308.564378143" y="836.282200981" type="line"/>
      <point x="318.3839603" y="840.524238857" type="line"/>
      <point x="351.962059706" y="771.523295674" type="line"/>
      <point x="352.463120965" y="747.502469189" type="line"/>
      <point x="370.719563127" y="479.002706304" type="line"/>
      <point x="487.663289351" y="688.388368856" type="line"/>
      <point x="619.607870039" y="931.037584538" type="line"/>
      <point x="686.181826179" y="952.668774144" type="line"/>
      <point x="681.546571263" y="935.390755161" type="line"/>
      <point x="487.144332433" y="631.440789423" type="line"/>
      <point x="435.697368294" y="543.225226215" type="line"/>
    </contour>
  </outline>
</glyph>
<glyph name="brokenbar" format="1">
  <advance width="606"/>
  <unicode hex="00A6"/>
  <outline>
    <contour>
      <point x="351.773504339" y="421.32510965" type="line"/>
      <point x="405.032669251" y="438.630061335" type="line"/>
      <point x="317.889876837" y="113.80330446" type="line"/>
      <point x="264.630711924" y="96.4983527747" type="line"/>
    </contour>
    <contour>
      <point x="539.14604481" y="938.540743902" type="line"/>
      <point x="450.458167424" y="607.954647366" type="line"/>
      <point x="397.199002511" y="590.649695681" type="line"/>
      <point x="485.886879897" y="921.235792217" type="line"/>
    </contour>
  </outline>
</glyph>
<glyph name="section" format="1">
  <advance width="500"/>
  <unicode hex="00A7"/>
  <outline>
    <contour>
      <point x="514.79087813" y="715.077514574" type="line"/>
      <point x="536.920074061" y="813.744939702" type="line"/>
      <point x="436.984068313" y="832.795412059" type="line"/>
      <point x="269.607286255" y="652.235931968" type="line"/>
      <point x="286.351379828" y="581.97113762" type="line"/>
      <point x="399.65018787" y="560.95372958" type="line"/>
      <point x="520.422579654" y="435.115489226" type="line"/>
      <point x="402.359758182" y="247.446917295" type="line"/>
      <point x="427.285381745" y="146.193672011" type="line"/>
      <point x="123.487638007" y="-190.146661278" type="line"/>
      <point x="-12.2314872987" y="-187.980140379" type="line"/>
      <point x="47.6968590138" y="-3.42867109427" type="line"/>
      <point x="78.1306675352" y="6.45987272573" type="line"/>
      <point x="55.0744206229" y="-95.6631561987" type="line"/>
      <point x="168.088217203" y="-120.979018974" type="line"/>
      <point x="350.681903522" y="64.5247330274" type="line"/>
      <point x="332.581714305" y="145.914989657" type="line"/>
      <point x="222.778115334" y="167.016597743" type="line"/>
      <point x="108.099206116" y="202.306054868" type="line"/>
      <point x="99.8185990576" y="287.938349374" type="line"/>
      <point x="221.709652127" y="473.69640248" type="line"/>
      <point x="198.377124603" y="574.415813821" type="line"/>
      <point x="488.242043123" y="904.126173325" type="line"/>
      <point x="603.607947994" y="903.758188018" type="line"/>
      <point x="544.273630136" y="724.657041399" type="line"/>
    </contour>
    <contour>
      <point x="174.639991913" y="353.256320358" type="line"/>
      <point x="314.526481219" y="263.069569043" type="line"/>
      <point x="385.144718757" y="254.470958605" type="line"/>
      <point x="445.292169804" y="368.64565031" type="line"/>
      <point x="425.337878622" y="443.124699347" type="line"/>
      <point x="318.74447726" y="460.012052744" type="line"/>
      <point x="242.419900624" y="466.756561216" type="line"/>
    </contour>
  </outline>
</glyph>
<glyph name="dieresis" format="1">
  <advance width="333"/>
  <unicode hex="00A8"/>
  <outline>
    <contour>
      <point x="292.666588105" y="712.301464533" type="line"/>
      <point x="229.662912571" y="639.257218204" type="line"/>
      <point x="197.560936476" y="681.399765095" type="line"/>
      <point x="261.515668524" y="754.753028417" type="line"/>
    </contour>
    <contour>
      <point x="481.926834848" y="773.795846413" type="line"/>
      <point x="418.923159314" y="700.751600085" type="line"/>
      <point x="386.821183218" y="742.894146976" type="line"/>
      <point x="450.775915267" y="816.247410297" type="line"/>
    </contour>
  </outline>
</glyph>
<glyph name="copyright" format="1">
  <advance width="747"/>
  <unicode hex="00A9"/>
  <outline>
    <contour>
      <point x="629.448836754" y="640.877147891" type="line"/>
      <point x="604.72136733" y="632.842706037" type="line"/>
      <point x="535.072081969" y="722.718739388" type="line"/>
      <point x="342.115851041" y="479.17195688" type="line"/>
      <point x="426.964145003" y="313.27178952" type="line"/>
      <point x="565.836292042" y="439.356676618" type="line"/>
      <point x="583.027325935" y="435.47922211" type="line"/>
      <point x="540.280848705" y="373.222787398" type="line"/>
      <point x="395.510318302" y="270.456492752" type="line"/>
      <point x="274.662854982" y="447.791989872" type="line"/>
      <point x="533.595958659" y="749.577135681" type="line"/>
      <point x="662.513655152" y="764.127016635" type="line"/>
    </contour>
    <contour>
      <point x="806.588459052" y="624.830944462" type="line"/>
      <point x="349.18177468" y="94.5297161227" type="line"/>
      <point x="116.145433756" y="397.338019744" type="line"/>
      <point x="576.714304671" y="929.718166999" type="line"/>
    </contour>
    <contour>
      <point x="158.300937467" y="412.086635429" type="line"/>
      <point x="362.778522432" y="145.211905139" type="line"/>
      <point x="764.432955341" y="610.082328778" type="line"/>
      <point x="563.117556919" y="879.035977983" type="line"/>
    </contour>
  </outline>
</glyph>
<glyph name="ordfeminine" format="1">
  <advance width="333"/>
  <unicode hex="00AA"/>
  <outline>
    <contour>
      <point x="257.822739277" y="530.643131429" type="line"/>
      <point x="226.461879771" y="517.298983812" type="line"/>
      <point x="175.170734618" y="575.287298431" type="line"/>
      <point x="324.978504125" y="725.954629143" type="line"/>
      <point x="388.936291113" y="757.250396105" type="line"/>
      <point x="329.037626246" y="818.750731378" type="line"/>
      <point x="280.701782647" y="780.96475705" type="line"/>
      <point x="276.303528126" y="774.278366406" type="line"/>
      <point x="271.59625661" y="766.440107829" type="line"/>
      <point x="257.165425071" y="741.773464169" type="line"/>
      <point x="242.233532271" y="741.127646993" type="line"/>
      <point x="254.285195052" y="786.050496348" type="line"/>
      <point x="290.662343065" y="808.384770473" type="line"/>
      <point x="372.213148135" y="866.426100011" type="line"/>
      <point x="447.658684854" y="849.932814138" type="line"/>
      <point x="435.301060015" y="761.80060049" type="line"/>
      <point x="403.78132659" y="644.310071408" type="line"/>
      <point x="413.009935227" y="601.044290257" type="line"/>
      <point x="432.031065553" y="607.224630145" type="line"/>
      <point x="426.468759655" y="586.491007365" type="line"/>
      <point x="403.310380737" y="581.069318371" type="line"/>
      <point x="380.79404134" y="574.804778438" type="line"/>
      <point x="354.806498406" y="565.309451658" type="line"/>
      <point x="338.329520633" y="558.904294821" type="line"/>
      <point x="332.314164542" y="555.898324922" type="line"/>
      <point x="350.927200804" y="615.570640447" type="line"/>
    </contour>
    <contour>
      <point x="383.064968218" y="735.364905393" type="line"/>
      <point x="231.520069474" y="604.110929437" type="line"/>
      <point x="261.45892661" y="553.905307022" type="line"/>
      <point x="332.500098933" y="614.840623226" type="line"/>
      <point x="358.652625664" y="644.367338751" type="line"/>
    </contour>
  </outline>
</glyph>
<glyph name="guillemotleft" format="1">
  <advance width="500"/>
  <unicode hex="00AB"/>
  <outline>
    <contour>
      <point x="263.388534074" y="176.005873767" type="line"/>
      <point x="236.878979284" y="151.620463914" type="line"/>
      <point x="122.334938453" y="294.202889306" type="line"/>
      <point x="126.043142386" y="308.025304493" type="line"/>
      <point x="347.198046276" y="562.837315703" type="line"/>
      <point x="365.055125224" y="554.970423455" type="line"/>
      <point x="200.273561724" y="325.83545645" type="line"/>
    </contour>
    <contour>
      <point x="454.550893849" y="238.118289636" type="line"/>
      <point x="428.04133906" y="213.732879783" type="line"/>
      <point x="313.497298228" y="356.315305176" type="line"/>
      <point x="317.205502161" y="370.137720362" type="line"/>
      <point x="538.360406051" y="624.949731572" type="line"/>
      <point x="556.217484999" y="617.082839324" type="line"/>
      <point x="391.435921499" y="387.947872319" type="line"/>
    </contour>
  </outline>
</glyph>
<glyph name="logicalnot" format="1">
  <advance width="606"/>
  <unicode hex="00AC"/>
  <outline>
    <contour>
      <point x="572.74858371" y="533.079829836" type="line"/>
      <point x="150.479490475" y="395.876284333" type="line"/>
      <point x="167.78444216" y="460.380888535" type="line"/>
      <point x="643.312700308" y="614.889385723" type="line"/>
      <point x="561.114179804" y="308.492515762" type="line"/>
      <point x="507.855014891" y="291.187564077" type="line"/>
    </contour>
  </outline>
</glyph>
<glyph name="registered" format="1">
  <advance width="747"/>
  <unicode hex="00AE"/>
  <outline>
    <contour>
      <point x="514.526817266" y="749.689969398" type="line"/>
      <point x="628.5667419" y="673.18586685" type="line"/>
      <point x="489.529611067" y="527.069591008" type="line"/>
      <point x="545.294082277" y="424.270410267" type="line"/>
      <point x="588.9047587" y="373.2497201" type="line"/>
      <point x="583.960486792" y="354.819833186" type="line"/>
      <point x="533.554491428" y="338.441932484" type="line"/>
      <point x="486.160539535" y="427.137464231" type="line"/>
      <point x="437.93555879" y="499.791044973" type="line"/>
      <point x="398.942241622" y="487.121348203" type="line"/>
      <point x="359.079049348" y="338.530384952" type="line"/>
      <point x="374.275003014" y="304.563747304" type="line"/>
      <point x="394.247189856" y="311.053104186" type="line"/>
      <point x="388.993900951" y="291.471349339" type="line"/>
      <point x="244.433310474" y="244.500766194" type="line"/>
      <point x="249.377582383" y="262.930653108" type="line"/>
      <point x="264.594486644" y="267.874925018" type="line"/>
      <point x="304.607821992" y="313.471374737" type="line"/>
      <point x="398.239971287" y="662.487358187" type="line"/>
      <point x="377.076672597" y="687.154852333" type="line"/>
      <point x="360.90871182" y="681.901563428" type="line"/>
      <point x="366.162000724" y="701.483318275" type="line"/>
    </contour>
    <contour>
      <point x="430.80110745" y="518.502165695" type="line"/>
      <point x="576.852661959" y="661.640254826" type="line"/>
      <point x="513.410776955" y="729.349563659" type="line"/>
      <point x="485.830137983" y="720.388070822" type="line"/>
      <point x="450.239062689" y="678.331424946" type="line"/>
      <point x="405.12258151" y="510.158706847" type="line"/>
    </contour>
    <contour>
      <point x="806.588459052" y="624.830944462" type="line"/>
      <point x="349.18177468" y="94.5297161227" type="line"/>
      <point x="116.145433756" y="397.338019744" type="line"/>
      <point x="576.714304671" y="929.718166999" type="line"/>
    </contour>
    <contour>
      <point x="158.300937467" y="412.086635429" type="line"/>
      <point x="362.778522432" y="145.211905139" type="line"/>
      <point x="764.432955341" y="610.082328778" type="line"/>
      <point x="563.117556919" y="879.035977983" type="line"/>
    </contour>
  </outline>
</glyph>
<glyph name="macron" format="1">
  <advance width="333"/>
  <unicode hex="00AF"/>
  <outline>
    <contour>
      <point x="176.712764652" y="623.104134452" type="line"/>
      <point x="193.090665356" y="684.153134858" type="line"/>
      <point x="489.82029844" y="780.566437103" type="line"/>
      <point x="473.442397736" y="719.517436697" type="line"/>
    </contour>
  </outline>
</glyph>
<glyph name="degree" format="1">
  <advance width="400"/>
  <unicode hex="00B0"/>
  <outline>
    <contour>
      <point x="498.811906683" y="726.709027613" type="line"/>
      <point x="310.418914072" y="509.880024494" type="line"/>
      <point x="214.112985784" y="636.307665165" type="line"/>
      <point x="399.082785923" y="843.612707832" type="line"/>
    </contour>
    <contour>
      <point x="252.155246436" y="648.66834494" type="line"/>
      <point x="322.779593846" y="555.954741781" type="line"/>
      <point x="460.769646031" y="714.348347838" type="line"/>
      <point x="389.812276092" y="809.056669866" type="line"/>
    </contour>
  </outline>
</glyph>
<glyph name="plusminus" format="1">
  <advance width="606"/>
  <unicode hex="00B1"/>
  <outline>
    <contour>
      <point x="419.757243101" y="674.73605473" type="line"/>
      <point x="473.016408013" y="692.041006415" type="line"/>
      <point x="404.105618267" y="435.174457538" type="line"/>
      <point x="617.142277918" y="504.394264278" type="line"/>
      <point x="599.837326233" y="439.889660076" type="line"/>
      <point x="386.800666583" y="370.669853336" type="line"/>
      <point x="344.774355349" y="214.01581456" type="line"/>
      <point x="291.515190436" y="196.710862875" type="line"/>
      <point x="333.54150167" y="353.364901651" type="line"/>
      <point x="120.50484202" y="284.145094911" type="line"/>
      <point x="137.809793705" y="348.649699113" type="line"/>
      <point x="350.846453355" y="417.869505853" type="line"/>
    </contour>
    <contour>
      <point x="51.5940522747" y="27.2785460349" type="line"/>
      <point x="65.808834016" y="80.2644709153" type="line"/>
      <point x="545.141318229" y="236.00903608" type="line"/>
      <point x="530.926536487" y="183.0231112" type="line"/>
    </contour>
  </outline>
</glyph>
<glyph name="twosuperior" format="1">
  <advance width="300"/>
  <unicode hex="00B2"/>
  <outline>
    <contour>
      <point x="226.962941032" y="493.278157327" type="line"/>
      <point x="362.975808647" y="702.550986162" type="line"/>
      <point x="310.04355639" y="767.366308328" type="line"/>
      <point x="231.15693154" y="693.36722783" type="line"/>
      <point x="213.326913062" y="656.030036915" type="line"/>
      <point x="190.501556671" y="648.61362905" type="line"/>
      <point x="227.229622872" y="749.921590224" type="line"/>
      <point x="341.329344358" y="832.207712712" type="line"/>
      <point x="426.243545045" y="740.982777666" type="line"/>
      <point x="309.749814079" y="555.926958594" type="line"/>
      <point x="177.466100992" y="399.387454504" type="line"/>
      <point x="372.384675766" y="469.029111954" type="line"/>
      <point x="369.270500288" y="460.657019435" type="line"/>
      <point x="361.212052902" y="433.85504" type="line"/>
      <point x="355.055718548" y="407.671094555" type="line"/>
      <point x="353.843656103" y="399.917036024" type="line"/>
      <point x="220.362721295" y="358.649375681" type="line"/>
      <point x="89.4499445732" y="314.010311587" type="line"/>
      <point x="95.6302844613" y="337.047670231" type="line"/>
    </contour>
  </outline>
</glyph>
<glyph name="threesuperior" format="1">
  <advance width="300"/>
  <unicode hex="00B3"/>
  <outline>
    <contour>
      <point x="237.358222023" y="755.315496032" type="line"/>
      <point x="345.133570423" y="833.443780689" type="line"/>
      <point x="425.742483787" y="765.003604151" type="line"/>
      <point x="337.753387838" y="634.422378073" type="line"/>
      <point x="393.325814784" y="556.795891749" type="line"/>
      <point x="186.220708841" y="334.938416675" type="line"/>
      <point x="117.315595007" y="327.270259159" type="line"/>
      <point x="111.276233383" y="327.410876063" type="line"/>
      <point x="118.782553506" y="426.584351947" type="line"/>
      <point x="142.17793282" y="442.597669281" type="line"/>
      <point x="150.194479014" y="391.577829599" type="line"/>
      <point x="213.870309476" y="376.517645466" type="line"/>
      <point x="328.179970885" y="514.599479454" type="line"/>
      <point x="281.239069186" y="585.567358321" type="line"/>
      <point x="228.717965928" y="554.833208489" type="line"/>
      <point x="223.914672281" y="559.581297122" type="line"/>
      <point x="242.647736208" y="603.520678635" type="line"/>
      <point x="271.512454225" y="610.796469597" type="line"/>
      <point x="365.993961992" y="723.509425891" type="line"/>
      <point x="322.359280035" y="777.676702859" type="line"/>
      <point x="242.140565075" y="711.656497841" type="line"/>
      <point x="219.912292076" y="667.632916282" type="line"/>
      <point x="196.135879169" y="659.907491423" type="line"/>
    </contour>
  </outline>
</glyph>
<glyph name="acute" format="1">
  <advance width="333"/>
  <unicode hex="00B4"/>
  <outline>
    <contour>
      <point x="404.435151897" y="808.55061911" type="line"/>
      <point x="466.940821108" y="863.558195563" type="line"/>
      <point x="485.916995305" y="833.974212694" type="line"/>
      <point x="433.350935917" y="767.475740106" type="line"/>
      <point x="268.587268077" y="619.30917902" type="line"/>
      <point x="230.545007425" y="606.948499245" type="line"/>
    </contour>
  </outline>
</glyph>
<glyph name="paragraph" format="1">
  <advance width="628"/>
  <unicode hex="00B6"/>
  <outline>
    <contour>
      <point x="513.819738941" y="9.2308198596" type="line"/>
      <point x="322.633373634" y="-49.7350092074" type="line"/>
      <point x="129.592906358" y="-115.612045868" type="line"/>
      <point x="138.86341619" y="-81.0560079024" type="line"/>
      <point x="179.734840858" y="-64.621690342" type="line"/>
      <point x="257.952365715" y="55.4243242563" type="line"/>
      <point x="372.906687621" y="483.919195027" type="line"/>
      <point x="232.645274597" y="498.278846096" type="line"/>
      <point x="204.578415086" y="636.364082023" type="line"/>
      <point x="421.146075127" y="867.604900646" type="line"/>
      <point x="476.640375599" y="883.533167449" type="line"/>
      <point x="610.217332541" y="912.214480583" type="line"/>
      <point x="774.630082193" y="981.40735462" type="line"/>
      <point x="765.359572365" y="946.851316656" type="line"/>
      <point x="733.998712858" y="933.507169039" type="line"/>
      <point x="647.197673822" y="813.826588294" type="line"/>
      <point x="461.478460202" y="121.553961053" type="line"/>
      <point x="484.072926072" y="34.263747858" type="line"/>
      <point x="523.090248773" y="43.786857825" type="line"/>
    </contour>
    <contour>
      <point x="468.701955879" y="840.998254004" type="line"/>
      <point x="454.745125129" y="837.51486702" type="line"/>
      <point x="305.201416486" y="652.235081484" type="line"/>
      <point x="384.340316414" y="526.538308518" type="line"/>
    </contour>
    <contour>
      <point x="538.129081569" y="863.556494593" type="line"/>
      <point x="298.640910927" y="-29.1411528474" type="line"/>
      <point x="363.312754035" y="-8.12799722994" type="line"/>
      <point x="602.800924677" y="884.569650211" type="line"/>
    </contour>
  </outline>
</glyph>
<glyph name="periodcentered" format="1">
  <advance width="250"/>
  <unicode hex="00B7"/>
  <outline>
    <contour>
      <point x="254.38776102" y="356.035772338" type="line"/>
      <point x="179.710401362" y="271.838280541" type="line"/>
      <point x="144.374222124" y="321.341668923" type="line"/>
      <point x="216.507429226" y="405.763977668" type="line"/>
    </contour>
  </outline>
</glyph>
<glyph name="cedilla" format="1">
  <advance width="333"/>
  <unicode hex="00B8"/>
  <outline>
    <contour>
      <point x="170.953172539" y="45.031430649" type="line"/>
      <point x="203.289094093" y="55.5380084578" type="line"/>
      <point x="159.426576551" y="-27.0588319933" type="line"/>
      <point x="186.341170467" y="-14.1079014171" type="line"/>
      <point x="245.549784747" y="-68.4722121477" type="line"/>
      <point x="101.661349199" y="-203.547225753" type="line"/>
      <point x="26.7168737399" y="-211.074766366" type="line"/>
      <point x="49.6111917937" y="-171.040622547" type="line"/>
      <point x="108.030678415" y="-163.625065167" type="line"/>
      <point x="172.675461053" y="-97.4078263866" type="line"/>
      <point x="146.684863182" y="-64.8456568066" type="line"/>
      <point x="105.528427052" y="-85.5784291013" type="line"/>
      <point x="100.725133405" y="-80.8303404687" type="line"/>
    </contour>
  </outline>
</glyph>
<glyph name="onesuperior" format="1">
  <advance width="300"/>
  <unicode hex="00B9"/>
  <outline>
    <contour>
      <point x="225.423531972" y="736.717209026" type="line"/>
      <point x="373.404259983" y="835.269248984" type="line"/>
      <point x="386.671040146" y="845.88866051" type="line"/>
      <point x="277.897058126" y="440.431148382" type="line"/>
      <point x="301.010480914" y="410.08851462" type="line"/>
      <point x="332.72836848" y="418.291356565" type="line"/>
      <point x="325.311960614" y="390.646526192" type="line"/>
      <point x="272.361812696" y="374.493442439" type="line"/>
      <point x="232.726456007" y="362.666596608" type="line"/>
      <point x="135.100657355" y="328.843127317" type="line"/>
      <point x="142.517065221" y="356.48795769" type="line"/>
      <point x="178.324190312" y="370.225322346" type="line"/>
      <point x="223.686836697" y="422.817179702" type="line"/>
      <point x="312.065697087" y="752.251408306" type="line"/>
      <point x="315.107855965" y="770.063261232" type="line"/>
      <point x="230.109852891" y="705.644558045" type="line"/>
      <point x="220.599287728" y="702.554388101" type="line"/>
    </contour>
  </outline>
</glyph>
<glyph name="ordmasculine" format="1">
  <advance width="333"/>
  <unicode hex="00BA"/>
  <outline>
    <contour>
      <point x="482.403890574" y="752.92160673" type="line"/>
      <point x="277.866942719" y="527.692727904" type="line"/>
      <point x="181.942048024" y="645.832476101" type="line"/>
      <point x="383.625826331" y="870.134303943" type="line"/>
    </contour>
    <contour>
      <point x="245.494795884" y="688.562722339" type="line"/>
      <point x="299.264186867" y="555.674358458" type="line"/>
      <point x="420.396227686" y="715.950700152" type="line"/>
      <point x="361.040525271" y="831.252028057" type="line"/>
    </contour>
  </outline>
</glyph>
<glyph name="guillemotright" format="1">
  <advance width="500"/>
  <unicode hex="00BB"/>
  <outline>
    <contour>
      <point x="428.527125635" y="399.9995351" type="line"/>
      <point x="366.957238256" y="555.588457444" type="line"/>
      <point x="392.848759058" y="577.670131433" type="line"/>
      <point x="506.465748904" y="431.632102243" type="line"/>
      <point x="502.757544971" y="417.809687056" type="line"/>
      <point x="282.529692066" y="166.453279644" type="line"/>
      <point x="265.290647106" y="176.623907756" type="line"/>
    </contour>
    <contour>
      <point x="237.364765859" y="337.88711923" type="line"/>
      <point x="175.794878481" y="493.476041574" type="line"/>
      <point x="201.686399283" y="515.557715563" type="line"/>
      <point x="315.303389128" y="369.519686373" type="line"/>
      <point x="311.595185196" y="355.697271187" type="line"/>
      <point x="91.3673322901" y="104.340863774" type="line"/>
      <point x="74.1282873309" y="114.511491886" type="line"/>
    </contour>
  </outline>
</glyph>
<glyph name="onequarter" format="1">
  <advance width="750"/>
  <unicode hex="00BC"/>
  <outline>
    <contour>
      <point x="434.410668275" y="253.65504037" type="line"/>
      <point x="434.290640608" y="269.38797438" type="line"/>
      <point x="475.420016267" y="335.324829838" type="line"/>
      <point x="696.142820559" y="646.775403486" type="line"/>
      <point x="747.688861768" y="680.347123126" type="line"/>
      <point x="755.321319431" y="679.672672278" type="line"/>
      <point x="694.01592688" y="467.335755718" type="line"/>
      <point x="670.221618313" y="378.64192494" type="line"/>
      <point x="686.38957909" y="383.895213844" type="line"/>
      <point x="688.291692123" y="384.513247833" type="line"/>
      <point x="739.315721475" y="403.194884399" type="line"/>
      <point x="723.555854761" y="344.449619857" type="line"/>
      <point x="657.908949604" y="326.274034048" type="line"/>
      <point x="646.784337807" y="284.80678849" type="line"/>
      <point x="673.488991799" y="241.962007565" type="line"/>
      <point x="693.461178641" y="248.451364447" type="line"/>
      <point x="685.735753781" y="219.654666142" type="line"/>
      <point x="594.647323079" y="203.727249823" type="line"/>
      <point x="488.867054908" y="155.688148306" type="line"/>
      <point x="496.592479768" y="184.484846611" type="line"/>
      <point x="516.56466661" y="190.974203493" type="line"/>
      <point x="587.818833797" y="265.647734838" type="line"/>
      <point x="598.943445594" y="307.114980397" type="line"/>
    </contour>
    <contour>
      <point x="672.489490254" y="581.259548255" type="line"/>
      <point x="490.471936734" y="320.237713003" type="line"/>
      <point x="613.158227336" y="360.100905277" type="line"/>
    </contour>
    <contour>
      <point x="151.454986485" y="59.7253304441" type="line"/>
      <point x="787.113844568" y="969.691641535" type="line"/>
      <point x="836.568783415" y="985.760525243" type="line"/>
      <point x="200.909925333" y="75.7942141516" type="line"/>
    </contour>
    <contour>
      <point x="174.18694172" y="370.983973239" type="line"/>
      <point x="239.80373147" y="476.421138571" type="line"/>
      <point x="313.349776132" y="750.56570643" type="line"/>
      <point x="314.465816443" y="770.90611217" type="line"/>
      <point x="311.612646894" y="769.979061187" type="line"/>
      <point x="225.021547781" y="706.094191942" type="line"/>
      <point x="218.364152167" y="703.931072982" type="line"/>
      <point x="224.448469923" y="739.554778834" type="line"/>
      <point x="395.49155472" y="856.114854995" type="line"/>
      <point x="400.984898956" y="844.23074182" type="line"/>
      <point x="333.427149917" y="618.296227022" type="line"/>
      <point x="300.671348513" y="496.198226211" type="line"/>
      <point x="315.894362648" y="417.027505401" type="line"/>
      <point x="347.279227686" y="427.225066215" type="line"/>
      <point x="339.244785832" y="397.276499978" type="line"/>
      <point x="275.190976712" y="378.567080225" type="line"/>
      <point x="233.653506989" y="366.122200404" type="line"/>
      <point x="190.546946762" y="351.064567725" type="line"/>
      <point x="131.91446528" y="329.910795205" type="line"/>
      <point x="139.948907134" y="359.859361441" type="line"/>
    </contour>
  </outline>
</glyph>
<glyph name="onehalf" format="1">
  <advance width="750"/>
  <unicode hex="00BD"/>
  <outline>
    <contour>
      <point x="119.119064931" y="49.2187526354" type="line"/>
      <point x="754.777923014" y="959.185063727" type="line"/>
      <point x="804.232861861" y="975.253947434" type="line"/>
      <point x="168.574003778" y="65.2876363429" type="line"/>
    </contour>
    <contour>
      <point x="159.921093976" y="366.348718323" type="line"/>
      <point x="225.537883725" y="471.785883655" type="line"/>
      <point x="299.083928388" y="745.930451515" type="line"/>
      <point x="300.199968698" y="766.270857254" type="line"/>
      <point x="297.34679915" y="765.343806271" type="line"/>
      <point x="210.755700037" y="701.458937027" type="line"/>
      <point x="204.098304423" y="699.295818066" type="line"/>
      <point x="210.182622179" y="734.919523919" type="line"/>
      <point x="381.225706975" y="851.479600079" type="line"/>
      <point x="386.719051211" y="839.595486905" type="line"/>
      <point x="319.161302172" y="613.660972107" type="line"/>
      <point x="286.405500768" y="491.562971295" type="line"/>
      <point x="301.628514904" y="412.392250485" type="line"/>
      <point x="333.013379941" y="422.589811299" type="line"/>
      <point x="324.978938088" y="392.641245063" type="line"/>
      <point x="260.925128968" y="373.931825309" type="line"/>
      <point x="219.387659245" y="361.486945489" type="line"/>
      <point x="176.281099017" y="346.42931281" type="line"/>
      <point x="117.648617535" y="325.275540289" type="line"/>
      <point x="125.683059389" y="355.224106526" type="line"/>
    </contour>
    <contour>
      <point x="553.082358924" y="569.799837246" type="line"/>
      <point x="671.628345997" y="652.479176773" type="line"/>
      <point x="768.264241876" y="566.114313593" type="line"/>
      <point x="653.03058442" y="382.519379447" type="line"/>
      <point x="509.976232658" y="221.428820486" type="line"/>
      <point x="626.005127646" y="259.1288938" type="line"/>
      <point x="716.949525152" y="293.935830932" type="line"/>
      <point x="704.849851304" y="255.306155181" type="line"/>
      <point x="698.099488493" y="223.671887069" type="line"/>
      <point x="552.800836362" y="190.13050207" type="line"/>
      <point x="411.831477088" y="130.657771762" type="line"/>
      <point x="418.011816977" y="153.695130406" type="line"/>
      <point x="552.863688151" y="306.863230745" type="line"/>
      <point x="697.41205888" y="522.063799331" type="line"/>
      <point x="642.220665529" y="591.402393181" type="line"/>
      <point x="560.171854137" y="515.324393768" type="line"/>
      <point x="536.992524622" y="470.991795215" type="line"/>
      <point x="514.167168231" y="463.57538735" type="line"/>
    </contour>
  </outline>
</glyph>
<glyph name="threequarters" format="1">
  <advance width="750"/>
  <unicode hex="00BE"/>
  <outline>
    <contour>
      <point x="257.615420327" y="766.103307648" type="line"/>
      <point x="365.795807853" y="832.797113029" type="line"/>
      <point x="456.46130377" y="779.190602706" type="line"/>
      <point x="357.392552153" y="642.906453825" type="line"/>
      <point x="424.377657293" y="568.988171433" type="line"/>
      <point x="212.493263236" y="348.73219819" type="line"/>
      <point x="126.136109582" y="337.496453645" type="line"/>
      <point x="130.05425344" y="407.114580332" type="line"/>
      <point x="130.45623763" y="437.737597416" type="line"/>
      <point x="162.411125589" y="456.532067699" type="line"/>
      <point x="236.6476548" y="390.227226935" type="line"/>
      <point x="355.736604325" y="526.707559093" type="line"/>
      <point x="299.618159991" y="592.590549146" type="line"/>
      <point x="248.999169766" y="562.474433304" type="line"/>
      <point x="240.72467258" y="563.991735089" type="line"/>
      <point x="263.522968501" y="616.612226116" type="line"/>
      <point x="280.332968799" y="621.022664082" type="line"/>
      <point x="293.647760027" y="625.348902004" type="line"/>
      <point x="393.217572904" y="737.6122244" type="line"/>
      <point x="342.307461344" y="787.312646543" type="line"/>
      <point x="241.381552825" y="686.17478643" type="line"/>
      <point x="217.605139918" y="678.44936157" type="line"/>
    </contour>
    <contour>
      <point x="160.014495132" y="62.5064833935" type="line"/>
      <point x="795.673353214" y="972.472794485" type="line"/>
      <point x="845.128292062" y="988.541678192" type="line"/>
      <point x="209.469433979" y="78.575367101" type="line"/>
    </contour>
    <contour>
      <point x="442.019120405" y="256.127176325" type="line"/>
      <point x="441.899092738" y="271.860110335" type="line"/>
      <point x="483.028468398" y="337.796965793" type="line"/>
      <point x="703.75127269" y="649.247539441" type="line"/>
      <point x="755.297313899" y="682.819259081" type="line"/>
      <point x="762.929771562" y="682.144808233" type="line"/>
      <point x="701.624379011" y="469.807891673" type="line"/>
      <point x="677.830070444" y="381.114060895" type="line"/>
      <point x="693.998031221" y="386.367349799" type="line"/>
      <point x="695.900144253" y="386.985383788" type="line"/>
      <point x="746.924173605" y="405.667020354" type="line"/>
      <point x="731.164306892" y="346.921755812" type="line"/>
      <point x="665.517401735" y="328.746170003" type="line"/>
      <point x="654.392789938" y="287.278924445" type="line"/>
      <point x="681.097443929" y="244.43414352" type="line"/>
      <point x="701.069630771" y="250.923500402" type="line"/>
      <point x="693.344205912" y="222.126802097" type="line"/>
      <point x="602.255775209" y="206.199385778" type="line"/>
      <point x="496.475507039" y="158.160284261" type="line"/>
      <point x="504.200931898" y="186.956982566" type="line"/>
      <point x="524.173118741" y="193.446339448" type="line"/>
      <point x="595.427285927" y="268.119870793" type="line"/>
      <point x="606.551897724" y="309.587116352" type="line"/>
    </contour>
    <contour>
      <point x="680.097942385" y="583.73168421" type="line"/>
      <point x="498.080388864" y="322.709848958" type="line"/>
      <point x="620.766679466" y="362.573041232" type="line"/>
    </contour>
  </outline>
</glyph>
<glyph name="questiondown" format="1">
  <advance width="444"/>
  <unicode hex="00BF"/>
  <outline>
    <contour>
      <point x="278.959845419" y="-115.447047716" type="line"/>
      <point x="141.653733949" y="-196.861685594" type="line"/>
      <point x="17.1011216339" y="-75.4061000198" type="line"/>
      <point x="175.177278452" y="157.858921629" type="line"/>
      <point x="302.894698287" y="329.73814269" type="line"/>
      <point x="296.804270658" y="378.229429559" type="line"/>
      <point x="321.102695423" y="400.844937492" type="line"/>
      <point x="340.390941551" y="330.355326195" type="line"/>
      <point x="227.605414515" y="159.121922309" type="line"/>
      <point x="112.038734531" y="-22.4782929671" type="line"/>
      <point x="195.335833649" y="-110.022807267" type="line"/>
      <point x="291.056464329" y="-34.7598756048" type="line"/>
      <point x="324.910410387" y="26.7101250279" type="line"/>
      <point x="350.018913404" y="26.4566744073" type="line"/>
    </contour>
    <contour>
      <point x="412.013922581" y="564.970950507" type="line"/>
      <point x="337.336562925" y="480.77345871" type="line"/>
      <point x="302.000383687" y="530.276847092" type="line"/>
      <point x="374.133590789" y="614.699155837" type="line"/>
    </contour>
  </outline>
</glyph>
<glyph name="AE" format="1">
  <advance width="944"/>
  <unicode hex="00C6"/>
  <outline>
    <contour>
      <point x="32.7139002112" y="44.2761816948" type="line"/>
      <point x="99.1647737486" y="123.697801672" type="line"/>
      <point x="532.236808079" y="802.760094324" type="line"/>
      <point x="564.830680623" y="862.769210029" type="line"/>
      <point x="517.49084967" y="861.056575451" type="line"/>
      <point x="476.571413936" y="850.915431495" type="line"/>
      <point x="485.841923768" y="885.471469461" type="line"/>
      <point x="726.246227529" y="949.914553897" type="line"/>
      <point x="907.15996049" y="1022.36599797" type="line"/>
      <point x="945.202221142" y="1034.72667774" type="line"/>
      <point x="1058.16495171" y="1057.76148493" type="line"/>
      <point x="999.067634259" y="889.251966656" type="line"/>
      <point x="965.780656189" y="878.436371853" type="line"/>
      <point x="985.866760814" y="953.307787441" type="line"/>
      <point x="970.694812679" y="984.127838286" type="line"/>
      <point x="837.117855743" y="955.446525154" type="line"/>
      <point x="723.372107385" y="910.076593356" type="line"/>
      <point x="640.864569885" y="602.527855463" type="line"/>
      <point x="744.553735696" y="633.064121048" type="line"/>
      <point x="854.471252454" y="680.34457167" type="line"/>
      <point x="870.114146444" y="712.765273864" type="line"/>
      <point x="890.938312734" y="774.20749131" type="line"/>
      <point x="919.470008223" y="783.478001141" type="line"/>
      <point x="880.770867323" y="648.934270024" type="line"/>
      <point x="849.323150498" y="522.003980535" type="line"/>
      <point x="820.791455009" y="512.733470704" type="line"/>
      <point x="834.268175094" y="579.14859373" type="line"/>
      <point x="834.385147824" y="605.47315608" type="line"/>
      <point x="724.917626317" y="582.522548936" type="line"/>
      <point x="626.031754155" y="547.238194718" type="line"/>
      <point x="539.506995731" y="224.715173708" type="line"/>
      <point x="631.189454889" y="246.092912693" type="line"/>
      <point x="809.89205782" y="316.774454844" type="line"/>
      <point x="865.689265412" y="417.969582301" type="line"/>
      <point x="880.951125803" y="458.678176967" type="line"/>
      <point x="914.238103869" y="469.493771769" type="line"/>
      <point x="851.432582478" y="287.161838304" type="line"/>
      <point x="687.637866814" y="220.272700131" type="line"/>
      <point x="581.737570979" y="187.966532625" type="line"/>
      <point x="456.744128216" y="158.919785638" type="line"/>
      <point x="387.104007665" y="122.623329908" type="line"/>
      <point x="394.211398537" y="149.116292349" type="line"/>
      <point x="425.785252901" y="176.198655106" type="line"/>
      <point x="476.470149853" y="280.990003263" type="line"/>
      <point x="514.170223166" y="421.517890989" type="line"/>
      <point x="398.117322646" y="386.964404478" type="line"/>
      <point x="282.11243319" y="346.117744361" type="line"/>
      <point x="186.01687879" y="195.027712453" type="line"/>
      <point x="138.065123722" y="106.89634929" type="line"/>
      <point x="179.509626248" y="89.8700799586" type="line"/>
      <point x="212.820609851" y="97.5390879593" type="line"/>
      <point x="203.55010002" y="62.9830499939" type="line"/>
      <point x="114.36378235" y="47.6736676635" type="line"/>
      <point x="-10.4376161461" y="-6.54577374029" type="line"/>
      <point x="-1.16710631483" y="28.0102642251" type="line"/>
    </contour>
    <contour>
      <point x="317.607486352" y="400.760737446" type="line"/>
      <point x="526.839919937" y="468.744476209" type="line"/>
      <point x="641.794241845" y="897.23934698" type="line"/>
      <point x="630.381563649" y="893.531143048" type="line"/>
    </contour>
  </outline>
</glyph>
<glyph name="Ccedilla" format="1">
  <advance width="709"/>
  <unicode hex="00C7"/>
  <outline>
    <contour>
      <point x="338.225201615" y="31.0363629492" type="line"/>
      <point x="365.139795531" y="43.9872935254" type="line"/>
      <point x="424.34840981" y="-10.3770172052" type="line"/>
      <point x="280.459974263" y="-145.452030811" type="line"/>
      <point x="205.515498803" y="-152.979571424" type="line"/>
      <point x="228.409816858" y="-112.945427604" type="line"/>
      <point x="286.829303478" y="-105.529870224" type="line"/>
      <point x="351.474086116" y="-39.3126314441" type="line"/>
      <point x="325.483488245" y="-6.7504618641" type="line"/>
      <point x="284.327052116" y="-27.483234159" type="line"/>
      <point x="279.523758469" y="-22.7351455261" type="line"/>
      <point x="344.426492098" y="92.9846311508" type="line"/>
      <point x="126.607055435" y="400.737206682" type="line"/>
      <point x="386.959106543" y="808.129618883" type="line"/>
      <point x="630.900520567" y="950.478722481" type="line"/>
      <point x="837.924879065" y="974.635062963" type="line"/>
      <point x="772.884222108" y="793.679814377" type="line"/>
      <point x="743.401470102" y="784.100287552" type="line"/>
      <point x="765.650693698" y="867.034778669" type="line"/>
      <point x="600.80278951" y="896.53796343" type="line"/>
      <point x="234.241425571" y="455.687515792" type="line"/>
      <point x="442.286236207" y="179.45722514" type="line"/>
      <point x="657.695954743" y="312.535818907" type="line"/>
      <point x="663.165293446" y="303.798292535" type="line"/>
      <point x="621.08486127" y="237.552420083" type="line"/>
      <point x="389.459170891" y="105.513711016" type="line"/>
      <point x="375.193323146" y="100.878456101" type="line"/>
    </contour>
  </outline>
</glyph>
<glyph name="Ecircumflex" format="1">
  <advance width="611"/>
  <unicode hex="00CA"/>
  <outline>
    <contour>
      <point x="234.763003466" y="803.890982946" type="line"/>
      <point x="400.033842439" y="843.921724826" type="line"/>
      <point x="530.232563039" y="898.843400264" type="line"/>
      <point x="624.696175147" y="930.587950639" type="line"/>
      <point x="738.60996224" y="953.931774824" type="line"/>
      <point x="679.512644779" y="785.422256544" type="line"/>
      <point x="646.225666708" y="774.606661741" type="line"/>
      <point x="666.311771342" y="849.478077332" type="line"/>
      <point x="651.139823211" y="880.298128179" type="line"/>
      <point x="517.562866269" y="851.616815045" type="line"/>
      <point x="403.817117909" y="806.246883246" type="line"/>
      <point x="321.30958041" y="498.698145353" type="line"/>
      <point x="424.99874622" y="529.234410938" type="line"/>
      <point x="534.916262982" y="576.514861562" type="line"/>
      <point x="550.559156966" y="608.935563753" type="line"/>
      <point x="571.383323255" y="670.377781198" type="line"/>
      <point x="599.915018744" y="679.64829103" type="line"/>
      <point x="561.215877848" y="545.104559914" type="line"/>
      <point x="529.768161023" y="418.174270425" type="line"/>
      <point x="501.236465534" y="408.903760594" type="line"/>
      <point x="514.713185619" y="475.31888362" type="line"/>
      <point x="514.830158348" y="501.64344597" type="line"/>
      <point x="405.362636842" y="478.692838826" type="line"/>
      <point x="306.47676468" y="443.408484608" type="line"/>
      <point x="219.952006255" y="120.885463598" type="line"/>
      <point x="311.634465413" y="142.263202583" type="line"/>
      <point x="490.337068345" y="212.944744734" type="line"/>
      <point x="546.134275937" y="314.139872191" type="line"/>
      <point x="561.396136328" y="354.848466857" type="line"/>
      <point x="594.683114398" y="365.66406166" type="line"/>
      <point x="531.877593003" y="183.332128194" type="line"/>
      <point x="369.033933855" y="116.752007015" type="line"/>
      <point x="216.531868721" y="69.3040067855" type="line"/>
      <point x="152.406043001" y="60.0343474385" type="line"/>
      <point x="31.4088705709" y="7.0509740122" type="line"/>
      <point x="40.6793804022" y="41.6070119777" type="line"/>
      <point x="75.8444659719" y="56.1872275717" type="line"/>
      <point x="152.159877797" y="175.615208181" type="line"/>
      <point x="290.908508272" y="692.803909731" type="line"/>
      <point x="270.216155433" y="780.712156913" type="line"/>
      <point x="225.492493634" y="769.33494498" type="line"/>
    </contour>
    <contour>
      <point x="602.044533399" y="1150.34382652" type="line"/>
      <point x="669.320759877" y="996.609006142" type="line"/>
      <point x="636.033781807" y="985.793411339" type="line"/>
      <point x="552.784693756" y="1067.04475203" type="line"/>
      <point x="405.878104864" y="911.0112987" type="line"/>
      <point x="372.591126793" y="900.195703897" type="line"/>
      <point x="543.079029389" y="1131.18477287" type="line"/>
    </contour>
  </outline>
</glyph>
<glyph name="Idieresis" format="1">
  <advance width="337"/>
  <unicode hex="00CF"/>
  <outline>
    <contour>
      <point x="242.510246845" y="204.971822647" type="line"/>
      <point x="263.202599682" y="117.063575464" type="line"/>
      <point x="307.926261481" y="128.440787397" type="line"/>
      <point x="298.655751649" y="93.8847494314" type="line"/>
      <point x="162.867664681" y="63.4335343766" type="line"/>
      <point x="19.9961923754" y="3.3427700797" type="line"/>
      <point x="29.2667022066" y="37.8988080452" type="line"/>
      <point x="75.8444659719" y="56.1872275717" type="line"/>
      <point x="152.159877797" y="175.615208181" type="line"/>
      <point x="290.908508272" y="692.803909731" type="line"/>
      <point x="270.216155433" y="780.712156913" type="line"/>
      <point x="225.492493634" y="769.33494498" type="line"/>
      <point x="234.763003466" y="803.890982946" type="line"/>
      <point x="369.600033918" y="834.033181006" type="line"/>
      <point x="513.42256274" y="894.432962298" type="line"/>
      <point x="504.152052909" y="859.876924332" type="line"/>
      <point x="457.574289143" y="841.588504805" type="line"/>
      <point x="381.25887732" y="722.160524196" type="line"/>
    </contour>
    <contour>
      <point x="365.951626839" y="979.000990855" type="line"/>
      <point x="302.947951305" y="905.956744527" type="line"/>
      <point x="270.845975209" y="948.099291418" type="line"/>
      <point x="334.800707258" y="1021.45255474" type="line"/>
    </contour>
    <contour>
      <point x="555.211873581" y="1040.49537274" type="line"/>
      <point x="492.208198047" y="967.451126408" type="line"/>
      <point x="460.106221952" y="1009.5936733" type="line"/>
      <point x="524.060954001" y="1082.94693662" type="line"/>
    </contour>
  </outline>
</glyph>
<glyph name="Eth" format="1">
  <advance width="774"/>
  <unicode hex="00D0"/>
  <outline>
    <contour>
      <point x="94.8175852317" y="68.6607410636" type="line"/>
      <point x="136.826000807" y="144.346373922" type="line"/>
      <point x="214.389266396" y="433.465224899" type="line"/>
      <point x="120.234671283" y="402.872542456" type="line"/>
      <point x="131.359283079" y="444.339788015" type="line"/>
      <point x="225.513878193" y="474.932470458" type="line"/>
      <point x="283.300056142" y="690.331773776" type="line"/>
      <point x="262.607703302" y="778.240020958" type="line"/>
      <point x="225.492493634" y="769.33494498" type="line"/>
      <point x="234.763003466" y="803.890982946" type="line"/>
      <point x="422.85919883" y="851.338132691" type="line"/>
      <point x="585.702857979" y="917.91825387" type="line"/>
      <point x="598.06659269" y="921.935474797" type="line"/>
      <point x="834.142037558" y="678.996520463" type="line"/>
      <point x="586.915788346" y="259.045544239" type="line"/>
      <point x="331.94272972" y="104.700344235" type="line"/>
      <point x="272.335186189" y="86.3841415215" type="line"/>
      <point x="186.644077588" y="71.158959236" type="line"/>
      <point x="53.2831704457" y="14.1583648828" type="line"/>
      <point x="60.3905613164" y="40.651327323" type="line"/>
    </contour>
    <contour>
      <point x="315.864247241" y="504.289084923" type="line"/>
      <point x="490.858646239" y="561.148211888" type="line"/>
      <point x="479.734034442" y="519.68096633" type="line"/>
      <point x="304.739635444" y="462.821839365" type="line"/>
      <point x="212.961588113" y="120.717063507" type="line"/>
      <point x="307.497216822" y="143.021853476" type="line"/>
      <point x="549.488506747" y="291.046096689" type="line"/>
      <point x="724.344548457" y="615.983135827" type="line"/>
      <point x="707.540224071" y="860.771089221" type="line"/>
      <point x="504.866109031" y="849.594312988" type="line"/>
      <point x="396.826699767" y="806.078483155" type="line"/>
    </contour>
  </outline>
</glyph>
<glyph name="Ntilde" format="1">
  <advance width="831"/>
  <unicode hex="00D1"/>
  <outline>
    <contour>
      <point x="395.49155472" y="856.114854995" type="line"/>
      <point x="669.393644399" y="320.542477574" type="line"/>
      <point x="814.940648747" y="863.07227363" type="line"/>
      <point x="794.248295908" y="950.980520813" type="line"/>
      <point x="753.328860176" y="940.839376858" type="line"/>
      <point x="762.599370013" y="975.395414825" type="line"/>
      <point x="868.904704969" y="996.267103052" type="line"/>
      <point x="987.048707849" y="1048.32342549" type="line"/>
      <point x="977.778198031" y="1013.76738753" type="line"/>
      <point x="935.004660319" y="996.71503598" type="line"/>
      <point x="858.689248496" y="877.287055371" type="line"/>
      <point x="688.111867604" y="241.455956808" type="line"/>
      <point x="682.288555777" y="213.277292492" type="line"/>
      <point x="679.531408361" y="199.7638943" type="line"/>
      <point x="598.880593805" y="190.382251722" type="line"/>
      <point x="330.423837296" y="720.363689573" type="line"/>
      <point x="187.3489689" y="187.048836973" type="line"/>
      <point x="208.041321737" y="99.1405897898" type="line"/>
      <point x="248.96075747" y="109.281733746" type="line"/>
      <point x="239.690247639" y="74.7256957801" type="line"/>
      <point x="129.58068661" y="52.6179395735" type="line"/>
      <point x="15.2409097939" y="1.79768510783" type="line"/>
      <point x="24.5114196252" y="36.3537230733" type="line"/>
      <point x="67.2849573253" y="53.4060746223" type="line"/>
      <point x="143.60036915" y="172.834055232" type="line"/>
      <point x="282.348999625" y="690.022756781" type="line"/>
      <point x="261.656646786" y="777.931003964" type="line"/>
      <point x="220.737211053" y="767.789860008" type="line"/>
      <point x="230.007720884" y="802.345897974" type="line"/>
      <point x="340.117281913" y="824.45365418" type="line"/>
    </contour>
    <contour>
      <point x="822.668694587" y="1183.12485966" type="line"/>
      <point x="686.556749898" y="1028.49587439" type="line"/>
      <point x="627.756229684" y="1029.36820948" type="line"/>
      <point x="568.265658881" y="1037.37656912" type="line"/>
      <point x="503.953898769" y="969.16461147" type="line"/>
      <point x="476.373259797" y="960.203118633" type="line"/>
      <point x="608.086949963" y="1108.14571326" type="line"/>
      <point x="683.460470082" y="1101.09218779" type="line"/>
      <point x="723.524871427" y="1098.33796754" type="line"/>
      <point x="795.088055614" y="1174.16336682" type="line"/>
    </contour>
  </outline>
</glyph>
<glyph name="Ograve" format="1">
  <advance width="786"/>
  <unicode hex="00D2"/>
  <outline>
    <contour>
      <point x="840.01641538" y="658.824514811" type="line"/>
      <point x="345.710571141" y="91.2989292749" type="line"/>
      <point x="126.29803844" y="399.58533875" type="line"/>
      <point x="601.417768562" y="940.899195655" type="line"/>
    </contour>
    <contour>
      <point x="239.494714476" y="475.269270639" type="line"/>
      <point x="396.731545557" y="152.038062202" type="line"/>
      <point x="728.982858309" y="591.203658449" type="line"/>
      <point x="572.271094021" y="887.267453599" type="line"/>
    </contour>
    <contour>
      <point x="531.363444074" y="1042.20970828" type="line"/>
      <point x="507.844982158" y="1083.98682132" type="line"/>
      <point x="547.83431197" y="1132.72985784" type="line"/>
      <point x="589.944859554" y="1111.71415077" type="line"/>
      <point x="678.546313579" y="995.400721352" type="line"/>
      <point x="640.504052927" y="983.040041577" type="line"/>
    </contour>
  </outline>
</glyph>
<glyph name="Oacute" format="1">
  <advance width="786"/>
  <unicode hex="00D3"/>
  <outline>
    <contour>
      <point x="840.01641538" y="658.824514811" type="line"/>
      <point x="345.710571141" y="91.2989292749" type="line"/>
      <point x="126.29803844" y="399.58533875" type="line"/>
      <point x="601.417768562" y="940.899195655" type="line"/>
    </contour>
    <contour>
      <point x="239.494714476" y="475.269270639" type="line"/>
      <point x="396.731545557" y="152.038062202" type="line"/>
      <point x="728.982858309" y="591.203658449" type="line"/>
      <point x="572.271094021" y="887.267453599" type="line"/>
    </contour>
    <contour>
      <point x="697.414245897" y="1146.63307113" type="line"/>
      <point x="759.919915106" y="1201.64064759" type="line"/>
      <point x="778.896089306" y="1172.05666472" type="line"/>
      <point x="726.330029915" y="1105.55819213" type="line"/>
      <point x="561.566362075" y="957.391631043" type="line"/>
      <point x="523.524101423" y="945.030951269" type="line"/>
    </contour>
  </outline>
</glyph>
<glyph name="Ocircumflex" format="1">
  <advance width="786"/>
  <unicode hex="00D4"/>
  <outline>
    <contour>
      <point x="840.01641538" y="658.824514811" type="line"/>
      <point x="345.710571141" y="91.2989292749" type="line"/>
      <point x="126.29803844" y="399.58533875" type="line"/>
      <point x="601.417768562" y="940.899195655" type="line"/>
    </contour>
    <contour>
      <point x="239.494714476" y="475.269270639" type="line"/>
      <point x="396.731545557" y="152.038062202" type="line"/>
      <point x="728.982858309" y="591.203658449" type="line"/>
      <point x="572.271094021" y="887.267453599" type="line"/>
    </contour>
    <contour>
      <point x="684.786450319" y="1177.22830503" type="line"/>
      <point x="752.062676797" y="1023.49348465" type="line"/>
      <point x="718.775698725" y="1012.67788985" type="line"/>
      <point x="635.526610674" y="1093.92923055" type="line"/>
      <point x="488.620021781" y="937.895777211" type="line"/>
      <point x="455.333043711" y="927.080182408" type="line"/>
      <point x="625.820946307" y="1158.06925138" type="line"/>
    </contour>
  </outline>
</glyph>
<glyph name="Otilde" format="1">
  <advance width="786"/>
  <unicode hex="00D5"/>
  <outline>
    <contour>
      <point x="840.01641538" y="658.824514811" type="line"/>
      <point x="345.710571141" y="91.2989292749" type="line"/>
      <point x="126.29803844" y="399.58533875" type="line"/>
      <point x="601.417768562" y="940.899195655" type="line"/>
    </contour>
    <contour>
      <point x="239.494714476" y="475.269270639" type="line"/>
      <point x="396.731545557" y="152.038062202" type="line"/>
      <point x="728.982858309" y="591.203658449" type="line"/>
      <point x="572.271094021" y="887.267453599" type="line"/>
    </contour>
    <contour>
      <point x="800.794394712" y="1176.01746879" type="line"/>
      <point x="664.682450023" y="1021.38848352" type="line"/>
      <point x="605.881929809" y="1022.26081861" type="line"/>
      <point x="546.391359006" y="1030.26917825" type="line"/>
      <point x="482.079598895" y="962.057220599" type="line"/>
      <point x="454.498959922" y="953.095727763" type="line"/>
      <point x="586.212650088" y="1101.03832238" type="line"/>
      <point x="661.586170207" y="1093.98479692" type="line"/>
      <point x="701.650571553" y="1091.23057667" type="line"/>
      <point x="773.213755739" y="1167.05597595" type="line"/>
    </contour>
  </outline>
</glyph>
<glyph name="Odieresis" format="1">
  <advance width="786"/>
  <unicode hex="00D6"/>
  <outline>
    <contour>
      <point x="840.01641538" y="658.824514811" type="line"/>
      <point x="345.710571141" y="91.2989292749" type="line"/>
      <point x="126.29803844" y="399.58533875" type="line"/>
      <point x="601.417768562" y="940.899195655" type="line"/>
    </contour>
    <contour>
      <point x="239.494714476" y="475.269270639" type="line"/>
      <point x="396.731545557" y="152.038062202" type="line"/>
      <point x="728.982858309" y="591.203658449" type="line"/>
      <point x="572.271094021" y="887.267453599" type="line"/>
    </contour>
    <contour>
      <point x="579.939343005" y="1048.52981459" type="line"/>
      <point x="516.935667471" y="975.485568262" type="line"/>
      <point x="484.833691376" y="1017.62811515" type="line"/>
      <point x="548.788423424" y="1090.98137847" type="line"/>
    </contour>
    <contour>
      <point x="769.19958975" y="1110.02419647" type="line"/>
      <point x="706.195914214" y="1036.97995014" type="line"/>
      <point x="674.093938118" y="1079.12249703" type="line"/>
      <point x="738.048670167" y="1152.47576035" type="line"/>
    </contour>
  </outline>
</glyph>
<glyph name="multiply" format="1">
  <advance width="606"/>
  <unicode hex="00D7"/>
  <outline>
    <contour>
      <point x="213.360083405" y="526.710961032" type="line"/>
      <point x="264.405063354" y="584.303507156" type="line"/>
      <point x="379.330137779" y="433.433189289" type="line"/>
      <point x="604.883296187" y="694.931591142" type="line"/>
      <point x="631.824950575" y="662.678438557" type="line"/>
      <point x="404.060662138" y="399.410134782" type="line"/>
      <point x="520.5788326" y="248.005982971" type="line"/>
      <point x="469.533852651" y="190.413436847" type="line"/>
      <point x="354.608778228" y="341.283754715" type="line"/>
      <point x="129.055619817" y="79.7853528608" type="line"/>
      <point x="102.11396543" y="112.038505446" type="line"/>
      <point x="328.92719735" y="374.997792227" type="line"/>
    </contour>
  </outline>
</glyph>
<glyph name="Oslash" format="1">
  <advance width="833"/>
  <unicode hex="00D8"/>
  <outline>
    <contour>
      <point x="54.3542546278" y="-1.26555213365" type="line"/>
      <point x="31.9308824271" y="21.9410570853" type="line"/>
      <point x="148.523690464" y="152.353032588" type="line"/>
      <point x="126.904286643" y="236.805675975" type="line"/>
      <point x="148.48135531" y="407.844597553" type="line"/>
      <point x="622.341011921" y="947.697569531" type="line"/>
      <point x="782.406573057" y="961.853382961" type="line"/>
      <point x="839.21201304" y="930.891864725" type="line"/>
      <point x="946.651283979" y="1053.07236461" type="line"/>
      <point x="967.814582664" y="1028.40487047" type="line"/>
      <point x="858.473198701" y="905.606336592" type="line"/>
      <point x="862.817766241" y="669.387509479" type="line"/>
      <point x="369.486984048" y="99.0243541343" type="line"/>
      <point x="222.736214142" y="89.1947786269" type="line"/>
      <point x="167.166842133" y="124.76376859" type="line"/>
    </contour>
    <contour>
      <point x="248.762603333" y="218.569420884" type="line"/>
      <point x="416.703732399" y="158.527419084" type="line"/>
      <point x="751.784209168" y="601.766653117" type="line"/>
      <point x="773.715250959" y="809.721765383" type="line"/>
    </contour>
    <contour>
      <point x="761.990500832" y="846.919189879" type="line"/>
      <point x="682.428666117" y="903.082036202" type="line"/>
      <point x="589.390111314" y="892.829759498" type="line"/>
      <point x="260.441963367" y="478.921057713" type="line"/>
      <point x="238.012915255" y="252.929275572" type="line"/>
    </contour>
  </outline>
</glyph>
<glyph name="Ugrave" format="1">
  <advance width="778"/>
  <unicode hex="00D9"/>
  <outline>
    <contour>
      <point x="718.026285245" y="527.710305276" type="line"/>
      <point x="580.402425931" y="238.002904466" type="line"/>
      <point x="353.319023271" y="93.7710652299" type="line"/>
      <point x="171.805151985" y="99.9842912124" type="line"/>
      <point x="171.696910105" y="280.800623863" type="line"/>
      <point x="281.397943109" y="689.713739787" type="line"/>
      <point x="260.70559027" y="777.62198697" type="line"/>
      <point x="215.981928471" y="766.244775036" type="line"/>
      <point x="225.252438303" y="800.800813002" type="line"/>
      <point x="360.089468755" y="830.943011062" type="line"/>
      <point x="503.911997577" y="891.342792354" type="line"/>
      <point x="494.641487746" y="856.786754388" type="line"/>
      <point x="448.06372398" y="838.498334862" type="line"/>
      <point x="371.748312157" y="719.070354253" type="line"/>
      <point x="265.44646609" y="322.827785582" type="line"/>
      <point x="398.156602864" y="173.530335874" type="line"/>
      <point x="664.69815867" y="477.787617637" type="line"/>
      <point x="763.583596871" y="846.385355935" type="line"/>
      <point x="742.891244032" y="934.293603118" type="line"/>
      <point x="701.971808298" y="924.152459162" type="line"/>
      <point x="711.24231813" y="958.708497128" type="line"/>
      <point x="817.547653089" y="979.580185355" type="line"/>
      <point x="935.691655979" y="1031.6365078" type="line"/>
      <point x="926.421146142" y="997.080469834" type="line"/>
      <point x="883.647608439" y="980.028118284" type="line"/>
      <point x="807.332196616" y="860.600137675" type="line"/>
    </contour>
    <contour>
      <point x="550.3845744" y="1048.39004817" type="line"/>
      <point x="526.866112484" y="1090.16716121" type="line"/>
      <point x="566.855442296" y="1138.91019773" type="line"/>
      <point x="608.96598988" y="1117.89449066" type="line"/>
      <point x="697.567443905" y="1001.58106124" type="line"/>
      <point x="659.525183253" y="989.220381464" type="line"/>
    </contour>
  </outline>
</glyph>
<glyph name="Ucircumflex" format="1">
  <advance width="778"/>
  <unicode hex="00DB"/>
  <outline>
    <contour>
      <point x="718.026285245" y="527.710305276" type="line"/>
      <point x="580.402425931" y="238.002904466" type="line"/>
      <point x="353.319023271" y="93.7710652299" type="line"/>
      <point x="171.805151985" y="99.9842912124" type="line"/>
      <point x="171.696910105" y="280.800623863" type="line"/>
      <point x="281.397943109" y="689.713739787" type="line"/>
      <point x="260.70559027" y="777.62198697" type="line"/>
      <point x="215.981928471" y="766.244775036" type="line"/>
      <point x="225.252438303" y="800.800813002" type="line"/>
      <point x="360.089468755" y="830.943011062" type="line"/>
      <point x="503.911997577" y="891.342792354" type="line"/>
      <point x="494.641487746" y="856.786754388" type="line"/>
      <point x="448.06372398" y="838.498334862" type="line"/>
      <point x="371.748312157" y="719.070354253" type="line"/>
      <point x="265.44646609" y="322.827785582" type="line"/>
      <point x="398.156602864" y="173.530335874" type="line"/>
      <point x="664.69815867" y="477.787617637" type="line"/>
      <point x="763.583596871" y="846.385355935" type="line"/>
      <point x="742.891244032" y="934.293603118" type="line"/>
      <point x="701.971808298" y="924.152459162" type="line"/>
      <point x="711.24231813" y="958.708497128" type="line"/>
      <point x="817.547653089" y="979.580185355" type="line"/>
      <point x="935.691655979" y="1031.6365078" type="line"/>
      <point x="926.421146142" y="997.080469834" type="line"/>
      <point x="883.647608439" y="980.028118284" type="line"/>
      <point x="807.332196616" y="860.600137675" type="line"/>
    </contour>
    <contour>
      <point x="704.758637161" y="1183.71766191" type="line"/>
      <point x="772.034863639" y="1029.98284154" type="line"/>
      <point x="738.747885569" y="1019.16724673" type="line"/>
      <point x="655.498797516" y="1100.41858743" type="line"/>
      <point x="508.592208623" y="944.385134093" type="line"/>
      <point x="475.305230553" y="933.56953929" type="line"/>
      <point x="645.793133149" y="1164.55860826" type="line"/>
    </contour>
  </outline>
</glyph>
<glyph name="Udieresis" format="1">
  <advance width="778"/>
  <unicode hex="00DC"/>
  <outline>
    <contour>
      <point x="718.026285245" y="527.710305276" type="line"/>
      <point x="580.402425931" y="238.002904466" type="line"/>
      <point x="353.319023271" y="93.7710652299" type="line"/>
      <point x="171.805151985" y="99.9842912124" type="line"/>
      <point x="171.696910105" y="280.800623863" type="line"/>
      <point x="281.397943109" y="689.713739787" type="line"/>
      <point x="260.70559027" y="777.62198697" type="line"/>
      <point x="215.981928471" y="766.244775036" type="line"/>
      <point x="225.252438303" y="800.800813002" type="line"/>
      <point x="360.089468755" y="830.943011062" type="line"/>
      <point x="503.911997577" y="891.342792354" type="line"/>
      <point x="494.641487746" y="856.786754388" type="line"/>
      <point x="448.06372398" y="838.498334862" type="line"/>
      <point x="371.748312157" y="719.070354253" type="line"/>
      <point x="265.44646609" y="322.827785582" type="line"/>
      <point x="398.156602864" y="173.530335874" type="line"/>
      <point x="664.69815867" y="477.787617637" type="line"/>
      <point x="763.583596871" y="846.385355935" type="line"/>
      <point x="742.891244032" y="934.293603118" type="line"/>
      <point x="701.971808298" y="924.152459162" type="line"/>
      <point x="711.24231813" y="958.708497128" type="line"/>
      <point x="817.547653089" y="979.580185355" type="line"/>
      <point x="935.691655979" y="1031.6365078" type="line"/>
      <point x="926.421146142" y="997.080469834" type="line"/>
      <point x="883.647608439" y="980.028118284" type="line"/>
      <point x="807.332196616" y="860.600137675" type="line"/>
    </contour>
    <contour>
      <point x="589.449908168" y="1051.61998453" type="line"/>
      <point x="526.446232634" y="978.575738205" type="line"/>
      <point x="494.344256539" y="1020.7182851" type="line"/>
      <point x="558.298988587" y="1094.07154842" type="line"/>
    </contour>
    <contour>
      <point x="778.710154913" y="1113.11436641" type="line"/>
      <point x="715.706479373" y="1040.07012008" type="line"/>
      <point x="683.604503281" y="1082.21266698" type="line"/>
      <point x="747.55923533" y="1155.5659303" type="line"/>
    </contour>
  </outline>
</glyph>
<glyph name="Thorn" format="1">
  <advance width="604"/>
  <unicode hex="00DE"/>
  <outline>
    <contour>
      <point x="252.020812008" y="208.061992591" type="line"/>
      <point x="272.713164845" y="120.153745407" type="line"/>
      <point x="317.436826643" y="131.530957341" type="line"/>
      <point x="308.166316812" y="96.9749193751" type="line"/>
      <point x="172.378229844" y="66.5237043204" type="line"/>
      <point x="29.5067575383" y="6.43294002345" type="line"/>
      <point x="38.7772673696" y="40.9889779889" type="line"/>
      <point x="85.3550311349" y="59.2773975154" type="line"/>
      <point x="161.67044296" y="178.705378125" type="line"/>
      <point x="300.419073435" y="695.894079675" type="line"/>
      <point x="279.726720596" y="783.802326857" type="line"/>
      <point x="235.003058797" y="772.425114924" type="line"/>
      <point x="244.273568629" y="806.981152889" type="line"/>
      <point x="379.110599081" y="837.12335095" type="line"/>
      <point x="522.933127903" y="897.523132241" type="line"/>
      <point x="513.662618072" y="862.967094276" type="line"/>
      <point x="467.084854306" y="844.678674749" type="line"/>
      <point x="390.769442483" y="725.25069414" type="line"/>
      <point x="382.425983633" y="694.150259971" type="line"/>
      <point x="425.556549395" y="706.061305848" type="line"/>
      <point x="502.901144209" y="732.243550324" type="line"/>
      <point x="520.020161502" y="737.805856223" type="line"/>
      <point x="665.496017176" y="623.148644525" type="line"/>
      <point x="391.060997778" y="312.120772073" type="line"/>
      <point x="337.753821799" y="301.108993992" type="line"/>
      <point x="338.725828912" y="340.328920545" type="line"/>
      <point x="394.910179973" y="349.121162806" type="line"/>
      <point x="561.119855715" y="557.690907122" type="line"/>
      <point x="443.62967814" y="669.87513238" type="line"/>
      <point x="366.66611692" y="635.40499543" type="line"/>
    </contour>
  </outline>
</glyph>
<glyph name="germandbls" format="1">
  <advance width="556"/>
  <unicode hex="00DF"/>
  <outline>
    <contour>
      <point x="144.650068775" y="451.812612738" type="line"/>
      <point x="148.976306696" y="467.938763789" type="line"/>
      <point x="225.414801123" y="529.576314027" type="line"/>
      <point x="245.809922751" y="605.59959755" type="line"/>
      <point x="326.022527838" y="755.734795289" type="line"/>
      <point x="554.005921009" y="948.626321484" type="line"/>
      <point x="653.117007781" y="829.418905401" type="line"/>
      <point x="550.703190166" y="590.05604294" type="line"/>
      <point x="490.285568379" y="594.60879878" type="line"/>
      <point x="426.591842257" y="528.700576994" type="line"/>
      <point x="483.04330912" y="460.822868071" type="line"/>
      <point x="543.96810204" y="348.134293026" type="line"/>
      <point x="477.568294505" y="220.362003084" type="line"/>
      <point x="408.810268808" y="151.756828394" type="line"/>
      <point x="325.333345173" y="96.2440516698" type="line"/>
      <point x="243.065429045" y="90.5428298368" type="line"/>
      <point x="238.739191123" y="74.4166787858" type="line"/>
      <point x="133.384912676" y="53.854007551" type="line"/>
      <point x="20.9472488917" y="3.65178707408" type="line"/>
      <point x="30.2177587229" y="38.2078250395" type="line"/>
      <point x="65.3828442927" y="52.7880406336" type="line"/>
      <point x="122.821158991" y="147.156160543" type="line"/>
      <point x="210.272968399" y="473.13478535" type="line"/>
    </contour>
    <contour>
      <point x="441.685663916" y="591.435279275" type="line"/>
      <point x="550.460079897" y="663.579407322" type="line"/>
      <point x="555.143345879" y="674.564252701" type="line"/>
      <point x="586.261095115" y="761.431764699" type="line"/>
      <point x="505.862121677" y="885.667652738" type="line"/>
      <point x="315.192092313" y="592.393515384" type="line"/>
      <point x="204.254991331" y="178.872927731" type="line"/>
      <point x="223.28223153" y="100.938274897" type="line"/>
      <point x="249.911813987" y="109.59075074" type="line"/>
      <point x="296.150445351" y="213.988881857" type="line"/>
      <point x="321.828971291" y="222.332340705" type="line"/>
      <point x="307.614189549" y="169.346415825" type="line"/>
      <point x="365.250658387" y="154.426848596" type="line"/>
      <point x="465.77152778" y="266.999187986" type="line"/>
      <point x="411.933175134" y="367.269815914" type="line"/>
      <point x="355.931703527" y="459.477368316" type="line"/>
      <point x="391.306729022" y="529.853295411" type="line"/>
    </contour>
  </outline>
</glyph>
<glyph name="agrave" format="1">
  <advance width="500"/>
  <unicode hex="00E0"/>
  <outline>
    <contour>
      <point x="188.975235281" y="57.1959271462" type="line"/>
      <point x="146.558725642" y="35.0022699249" type="line"/>
      <point x="64.7346948973" y="137.745884292" type="line"/>
      <point x="297.422304648" y="380.533165423" type="line"/>
      <point x="397.139205659" y="431.859470646" type="line"/>
      <point x="307.349694724" y="537.27225473" type="line"/>
      <point x="217.431425272" y="451.277077825" type="line"/>
      <point x="195.488163735" y="411.551951001" type="line"/>
      <point x="172.923813273" y="411.580584672" type="line"/>
      <point x="193.009917907" y="486.452000264" type="line"/>
      <point x="253.304457089" y="539.689674796" type="line"/>
      <point x="378.88887337" y="616.244240809" type="line"/>
      <point x="467.661421065" y="435.847207417" type="line"/>
      <point x="411.111311093" y="225.055375827" type="line"/>
      <point x="419.817907877" y="166.899511603" type="line"/>
      <point x="456.291078023" y="176.647438519" type="line"/>
      <point x="447.020568191" y="142.091400554" type="line"/>
      <point x="380.659606912" y="134.198426088" type="line"/>
      <point x="302.459977714" y="95.1208174089" type="line"/>
      <point x="333.481704818" y="194.574676616" type="line"/>
    </contour>
    <contour>
      <point x="387.25066184" y="394.999696816" type="line"/>
      <point x="226.525165522" y="300.718328406" type="line"/>
      <point x="150.851793219" y="180.447496859" type="line"/>
      <point x="197.459672391" y="111.474336862" type="line"/>
      <point x="346.460418582" y="242.953129768" type="line"/>
    </contour>
    <contour>
      <point x="330.636832157" y="734.101904714" type="line"/>
      <point x="307.118370241" y="775.879017752" type="line"/>
      <point x="347.107700055" y="824.622054271" type="line"/>
      <point x="389.218247637" y="803.6063472" type="line"/>
      <point x="477.819701662" y="687.292917783" type="line"/>
      <point x="439.77744101" y="674.932238008" type="line"/>
    </contour>
  </outline>
</glyph>
<glyph name="aacute" format="1">
  <advance width="500"/>
  <unicode hex="00E1"/>
  <outline>
    <contour>
      <point x="188.975235281" y="57.1959271462" type="line"/>
      <point x="146.558725642" y="35.0022699249" type="line"/>
      <point x="64.7346948973" y="137.745884292" type="line"/>
      <point x="297.422304648" y="380.533165423" type="line"/>
      <point x="397.139205659" y="431.859470646" type="line"/>
      <point x="307.349694724" y="537.27225473" type="line"/>
      <point x="217.431425272" y="451.277077825" type="line"/>
      <point x="195.488163735" y="411.551951001" type="line"/>
      <point x="172.923813273" y="411.580584672" type="line"/>
      <point x="193.009917907" y="486.452000264" type="line"/>
      <point x="253.304457089" y="539.689674796" type="line"/>
      <point x="378.88887337" y="616.244240809" type="line"/>
      <point x="467.661421065" y="435.847207417" type="line"/>
      <point x="411.111311093" y="225.055375827" type="line"/>
      <point x="419.817907877" y="166.899511603" type="line"/>
      <point x="456.291078023" y="176.647438519" type="line"/>
      <point x="447.020568191" y="142.091400554" type="line"/>
      <point x="380.659606912" y="134.198426088" type="line"/>
      <point x="302.459977714" y="95.1208174089" type="line"/>
      <point x="333.481704818" y="194.574676616" type="line"/>
    </contour>
    <contour>
      <point x="387.25066184" y="394.999696816" type="line"/>
      <point x="226.525165522" y="300.718328406" type="line"/>
      <point x="150.851793219" y="180.447496859" type="line"/>
      <point x="197.459672391" y="111.474336862" type="line"/>
      <point x="346.460418582" y="242.953129768" type="line"/>
    </contour>
    <contour>
      <point x="484.323899266" y="834.508046637" type="line"/>
      <point x="546.829568477" y="889.51562309" type="line"/>
      <point x="565.805742673" y="859.931640222" type="line"/>
      <point x="513.239683286" y="793.433167634" type="line"/>
      <point x="348.476015446" y="645.266606548" type="line"/>
      <point x="310.433754794" y="632.905926773" type="line"/>
    </contour>
  </outline>
</glyph>
<glyph name="ae" format="1">
  <advance width="758"/>
  <unicode hex="00E6"/>
  <outline>
    <contour>
      <point x="298.502119678" y="572.250143406" type="line"/>
      <point x="371.28042124" y="613.772104854" type="line"/>
      <point x="488.194466019" y="577.105962848" type="line"/>
      <point x="663.254771742" y="708.640322127" type="line"/>
      <point x="791.392505388" y="658.797582111" type="line"/>
      <point x="782.080094365" y="546.419725029" type="line"/>
      <point x="769.671403523" y="506.638181346" type="line"/>
      <point x="593.203936153" y="434.579954314" type="line"/>
      <point x="454.349684774" y="389.463473135" type="line"/>
      <point x="443.255188383" y="260.734648053" type="line"/>
      <point x="560.85928375" y="216.932481505" type="line"/>
      <point x="699.97148612" y="311.551500581" type="line"/>
      <point x="710.196107403" y="304.35905918" type="line"/>
      <point x="680.668399269" y="259.015209598" type="line"/>
      <point x="624.154080618" y="210.160189847" type="line"/>
      <point x="503.585952846" y="142.595750341" type="line"/>
      <point x="379.207489137" y="157.91023558" type="line"/>
      <point x="354.665954105" y="208.818092029" type="line"/>
      <point x="208.02037114" y="60.2296802314" type="line"/>
      <point x="151.695041817" y="28.2594624224" type="line"/>
      <point x="61.5965138869" y="132.520378575" type="line"/>
      <point x="130.873496504" y="258.073132698" type="line"/>
      <point x="334.91854791" y="381.150348927" type="line"/>
      <point x="390.03181479" y="405.366508206" type="line"/>
      <point x="398.036141236" y="522.576653965" type="line"/>
      <point x="329.223994598" y="544.379645601" type="line"/>
      <point x="234.334392768" y="485.158664944" type="line"/>
      <point x="192.634994186" y="410.624900018" type="line"/>
      <point x="169.761626728" y="409.501665757" type="line"/>
      <point x="188.92068038" y="480.917477552" type="line"/>
    </contour>
    <contour>
      <point x="380.143270968" y="368.506734376" type="line"/>
      <point x="245.594306915" y="300.605494689" type="line"/>
      <point x="183.373649165" y="249.896372971" type="line"/>
      <point x="148.022629203" y="176.373859073" type="line"/>
      <point x="204.117068005" y="113.637455823" type="line"/>
      <point x="344.297299621" y="234.890054243" type="line"/>
    </contour>
    <contour>
      <point x="711.86078608" y="627.698848911" type="line"/>
      <point x="647.350871831" y="668.774578399" type="line"/>
      <point x="532.681127423" y="577.891546443" type="line"/>
      <point x="468.612477581" y="436.156224411" type="line"/>
      <point x="587.542553183" y="468.490175103" type="line"/>
      <point x="699.743216573" y="508.100767242" type="line"/>
    </contour>
  </outline>
</glyph>
<glyph name="ccedilla" format="1">
  <advance width="444"/>
  <unicode hex="00E7"/>
  <outline>
    <contour>
      <point x="212.685741464" y="-9.75388030833" type="line"/>
      <point x="239.60033538" y="3.19705026795" type="line"/>
      <point x="298.808949659" y="-51.1672604627" type="line"/>
      <point x="154.920514112" y="-186.242274068" type="line"/>
      <point x="79.9760386525" y="-193.769814681" type="line"/>
      <point x="102.870356707" y="-153.735670862" type="line"/>
      <point x="161.289843327" y="-146.320113482" type="line"/>
      <point x="225.934625965" y="-80.1028747016" type="line"/>
      <point x="199.944028094" y="-47.5407051216" type="line"/>
      <point x="158.787591965" y="-68.2734774165" type="line"/>
      <point x="153.984298318" y="-63.5253887836" type="line"/>
      <point x="217.626958437" y="50.7335029669" type="line"/>
      <point x="89.6210382426" y="249.926707612" type="line"/>
      <point x="253.80551835" y="515.668848311" type="line"/>
      <point x="427.392755701" y="632.004107522" type="line"/>
      <point x="526.899716788" y="627.534701244" type="line"/>
      <point x="475.575835252" y="481.528707664" type="line"/>
      <point x="448.946252795" y="472.876231821" type="line"/>
      <point x="461.13889384" y="540.977056724" type="line"/>
      <point x="370.428441793" y="558.819244291" type="line"/>
      <point x="185.674691451" y="323.194920404" type="line"/>
      <point x="293.303385675" y="128.946838153" type="line"/>
      <point x="402.125812723" y="194.797792596" type="line"/>
      <point x="407.001122972" y="180.609943557" type="line"/>
      <point x="377.140392308" y="137.260812845" type="line"/>
      <point x="249.653862995" y="60.088212843" type="line"/>
    </contour>
  </outline>
</glyph>
<glyph name="ecircumflex" format="1">
  <advance width="479"/>
  <unicode hex="00EA"/>
  <outline>
    <contour>
      <point x="407.715179092" y="170.327332213" type="line"/>
      <point x="348.989730413" y="119.70241054" type="line"/>
      <point x="231.583789186" y="54.2168899499" type="line"/>
      <point x="84.4489307482" y="94.7327032772" type="line"/>
      <point x="92.4021911918" y="260.293519001" type="line"/>
      <point x="267.594310368" y="541.178342909" type="line"/>
      <point x="394.105777631" y="621.188512719" type="line"/>
      <point x="512.289060731" y="459.810766559" type="line"/>
      <point x="499.571352895" y="418.877354944" type="line"/>
      <point x="323.103885525" y="346.819127911" type="line"/>
      <point x="184.249634146" y="301.702646733" type="line"/>
      <point x="174.106194271" y="173.282838645" type="line"/>
      <point x="289.808176606" y="128.862638108" type="line"/>
      <point x="427.96932246" y="223.17264019" type="line"/>
      <point x="437.242887227" y="215.671181794" type="line"/>
    </contour>
    <contour>
      <point x="433.366210601" y="557.188258304" type="line"/>
      <point x="372.495538622" y="579.468667025" type="line"/>
      <point x="244.037002196" y="463.07614047" type="line"/>
      <point x="198.512426953" y="348.395398008" type="line"/>
      <point x="316.491446039" y="380.420331706" type="line"/>
      <point x="423.936826848" y="418.485838873" type="line"/>
    </contour>
    <contour>
      <point x="466.940821108" y="863.558195563" type="line"/>
      <point x="534.217047585" y="709.823375185" type="line"/>
      <point x="500.930069514" y="699.007780382" type="line"/>
      <point x="417.680981463" y="780.259121077" type="line"/>
      <point x="270.774392571" y="624.225667743" type="line"/>
      <point x="237.4874145" y="613.41007294" type="line"/>
      <point x="407.975317098" y="844.399141911" type="line"/>
    </contour>
  </outline>
</glyph>
<glyph name="igrave" format="1">
  <advance width="287"/>
  <unicode hex="00EC"/>
  <outline>
    <contour>
      <point x="210.31835849" y="175.585724025" type="line"/>
      <point x="223.258225998" y="104.0848617" type="line"/>
      <point x="266.079774764" y="114.844039644" type="line"/>
      <point x="256.809264932" y="80.2880016789" type="line"/>
      <point x="141.944421322" y="56.6351605004" type="line"/>
      <point x="19.0451358591" y="3.03375308533" type="line"/>
      <point x="28.3156456903" y="37.5897910508" type="line"/>
      <point x="72.991296423" y="55.2601765886" type="line"/>
      <point x="130.429611121" y="149.628296498" type="line"/>
      <point x="199.958434855" y="408.798581238" type="line"/>
      <point x="180.670188727" y="479.288192535" type="line"/>
      <point x="145.481097624" y="467.854563743" type="line"/>
      <point x="154.133573468" y="500.106865844" type="line"/>
      <point x="315.168086778" y="595.540102186" type="line"/>
      <point x="322.491527447" y="593.713783407" type="line"/>
    </contour>
    <contour>
      <point x="229.82484143" y="701.34610331" type="line"/>
      <point x="206.306379514" y="743.123216348" type="line"/>
      <point x="246.295709328" y="791.866252868" type="line"/>
      <point x="288.406256909" y="770.850545796" type="line"/>
      <point x="377.007710934" y="654.537116379" type="line"/>
      <point x="338.965450283" y="642.176436604" type="line"/>
    </contour>
  </outline>
</glyph>
<glyph name="icircumflex" format="1">
  <advance width="287"/>
  <unicode hex="00EE"/>
  <outline>
    <contour>
      <point x="210.31835849" y="175.585724025" type="line"/>
      <point x="223.258225998" y="104.0848617" type="line"/>
      <point x="266.079774764" y="114.844039644" type="line"/>
      <point x="256.809264932" y="80.2880016789" type="line"/>
      <point x="141.944421322" y="56.6351605004" type="line"/>
      <point x="19.0451358591" y="3.03375308533" type="line"/>
      <point x="28.3156456903" y="37.5897910508" type="line"/>
      <point x="72.991296423" y="55.2601765886" type="line"/>
      <point x="130.429611121" y="149.628296498" type="line"/>
      <point x="199.958434855" y="408.798581238" type="line"/>
      <point x="180.670188727" y="479.288192535" type="line"/>
      <point x="145.481097624" y="467.854563743" type="line"/>
      <point x="154.133573468" y="500.106865844" type="line"/>
      <point x="315.168086778" y="595.540102186" type="line"/>
      <point x="322.491527447" y="593.713783407" type="line"/>
    </contour>
    <contour>
      <point x="375.639395544" y="833.892564103" type="line"/>
      <point x="442.91562202" y="680.157743725" type="line"/>
      <point x="409.62864395" y="669.342148922" type="line"/>
      <point x="326.379555899" y="750.593489617" type="line"/>
      <point x="179.472967006" y="594.560036283" type="line"/>
      <point x="146.185988936" y="583.74444148" type="line"/>
      <point x="316.673891534" y="814.733510451" type="line"/>
    </contour>
  </outline>
</glyph>
<glyph name="idieresis" format="1">
  <advance width="287"/>
  <unicode hex="00EF"/>
  <outline>
    <contour>
      <point x="210.31835849" y="175.585724025" type="line"/>
      <point x="223.258225998" y="104.0848617" type="line"/>
      <point x="266.079774764" y="114.844039644" type="line"/>
      <point x="256.809264932" y="80.2880016789" type="line"/>
      <point x="141.944421322" y="56.6351605004" type="line"/>
      <point x="19.0451358591" y="3.03375308533" type="line"/>
      <point x="28.3156456903" y="37.5897910508" type="line"/>
      <point x="72.991296423" y="55.2601765886" type="line"/>
      <point x="130.429611121" y="149.628296498" type="line"/>
      <point x="199.958434855" y="408.798581238" type="line"/>
      <point x="180.670188727" y="479.288192535" type="line"/>
      <point x="145.481097624" y="467.854563743" type="line"/>
      <point x="154.133573468" y="500.106865844" type="line"/>
      <point x="315.168086778" y="595.540102186" type="line"/>
      <point x="322.491527447" y="593.713783407" type="line"/>
    </contour>
    <contour>
      <point x="276.972628117" y="728.231432305" type="line"/>
      <point x="213.968952584" y="655.187185978" type="line"/>
      <point x="181.866976487" y="697.329732868" type="line"/>
      <point x="245.821708538" y="770.68299619" type="line"/>
    </contour>
    <contour>
      <point x="466.232874859" y="789.725814186" type="line"/>
      <point x="403.229199327" y="716.681567858" type="line"/>
      <point x="371.12722323" y="758.824114748" type="line"/>
      <point x="435.08195528" y="832.177378071" type="line"/>
    </contour>
  </outline>
</glyph>
<glyph name="eth" format="1">
  <advance width="546"/>
  <unicode hex="00F0"/>
  <outline>
    <contour>
      <point x="437.629162771" y="789.895064761" type="line"/>
      <point x="346.321627333" y="844.344426022" type="line"/>
      <point x="388.546092709" y="891.710777661" type="line"/>
      <point x="487.225079882" y="829.141924016" type="line"/>
      <point x="644.857351318" y="953.962109464" type="line"/>
      <point x="652.70585878" y="924.968377398" type="line"/>
      <point x="508.340367505" y="810.767603475" type="line"/>
      <point x="567.672064387" y="698.612862373" type="line"/>
      <point x="560.294936739" y="457.533963396" type="line"/>
      <point x="235.388015251" y="55.4529579274" type="line"/>
      <point x="97.4904963017" y="259.843885104" type="line"/>
      <point x="402.665286277" y="623.969665669" type="line"/>
      <point x="496.702908661" y="628.237785762" type="line"/>
      <point x="499.223055684" y="631.159555615" type="line"/>
      <point x="449.899930288" y="764.441136536" type="line"/>
      <point x="295.738862389" y="642.851737935" type="line"/>
      <point x="287.890354927" y="671.845470002" type="line"/>
    </contour>
    <contour>
      <point x="196.75434712" y="328.897843207" type="line"/>
      <point x="262.704593359" y="99.0269055883" type="line"/>
      <point x="348.677658482" y="160.608038968" type="line"/>
      <point x="469.803589429" y="404.999373384" type="line"/>
      <point x="476.283781501" y="555.361089041" type="line"/>
      <point x="382.957160301" y="582.867853963" type="line"/>
    </contour>
  </outline>
</glyph>
<glyph name="ograve" format="1">
  <advance width="546"/>
  <unicode hex="00F2"/>
  <outline>
    <contour>
      <point x="562.080077042" y="431.827435036" type="line"/>
      <point x="231.583789186" y="54.2168899499" type="line"/>
      <point x="97.4904963017" y="259.843885104" type="line"/>
      <point x="410.273738408" y="626.441801624" type="line"/>
    </contour>
    <contour>
      <point x="196.445330124" y="327.745975274" type="line"/>
      <point x="278.872554136" y="104.280194493" type="line"/>
      <point x="462.198192236" y="360.469741068" type="line"/>
      <point x="382.957160301" y="582.867853963" type="line"/>
    </contour>
    <contour>
      <point x="352.511132032" y="741.209295585" type="line"/>
      <point x="328.992670116" y="782.986408622" type="line"/>
      <point x="368.98199993" y="831.729445142" type="line"/>
      <point x="411.092547511" y="810.71373807" type="line"/>
      <point x="499.694001537" y="694.400308653" type="line"/>
      <point x="461.651740885" y="682.039628878" type="line"/>
    </contour>
  </outline>
</glyph>
<glyph name="ocircumflex" format="1">
  <advance width="546"/>
  <unicode hex="00F4"/>
  <outline>
    <contour>
      <point x="562.080077042" y="431.827435036" type="line"/>
      <point x="231.583789186" y="54.2168899499" type="line"/>
      <point x="97.4904963017" y="259.843885104" type="line"/>
      <point x="410.273738408" y="626.441801624" type="line"/>
    </contour>
    <contour>
      <point x="196.445330124" y="327.745975274" type="line"/>
      <point x="278.872554136" y="104.280194493" type="line"/>
      <point x="462.198192236" y="360.469741068" type="line"/>
      <point x="382.957160301" y="582.867853963" type="line"/>
    </contour>
    <contour>
      <point x="492.619347048" y="871.901654411" type="line"/>
      <point x="559.895573524" y="718.166834033" type="line"/>
      <point x="526.608595454" y="707.35123923" type="line"/>
      <point x="443.359507403" y="788.602579925" type="line"/>
      <point x="296.452918511" y="632.569126591" type="line"/>
      <point x="263.16594044" y="621.753531788" type="line"/>
      <point x="433.653843038" y="852.742600759" type="line"/>
    </contour>
  </outline>
</glyph>
<glyph name="otilde" format="1">
  <advance width="546"/>
  <unicode hex="00F5"/>
  <outline>
    <contour>
      <point x="562.080077042" y="431.827435036" type="line"/>
      <point x="231.583789186" y="54.2168899499" type="line"/>
      <point x="97.4904963017" y="259.843885104" type="line"/>
      <point x="410.273738408" y="626.441801624" type="line"/>
    </contour>
    <contour>
      <point x="196.445330124" y="327.745975274" type="line"/>
      <point x="278.872554136" y="104.280194493" type="line"/>
      <point x="462.198192236" y="360.469741068" type="line"/>
      <point x="382.957160301" y="582.867853963" type="line"/>
    </contour>
    <contour>
      <point x="609.578347956" y="870.99983516" type="line"/>
      <point x="473.466403271" y="716.370849895" type="line"/>
      <point x="414.665883055" y="717.243184988" type="line"/>
      <point x="355.175312252" y="725.251544625" type="line"/>
      <point x="290.863552142" y="657.039586975" type="line"/>
      <point x="263.28291317" y="648.078094138" type="line"/>
      <point x="394.996603334" y="796.02068876" type="line"/>
      <point x="470.370123453" y="788.967163294" type="line"/>
      <point x="510.434524802" y="786.212943046" type="line"/>
      <point x="581.997708983" y="862.038342324" type="line"/>
    </contour>
  </outline>
</glyph>
